<?xml version="1.0" encoding="utf-8"?>
<!-- Generator: Adobe Illustrator 24.0.3, SVG Export Plug-In . SVG Version: 6.00 Build 0)  -->
<svg version="1.1" id="レイヤー_1" xmlns="http://www.w3.org/2000/svg" xmlns:xlink="http://www.w3.org/1999/xlink" x="0px"
	 y="0px" viewBox="0 0 600 450" style="enable-background:new 0 0 600 450;" xml:space="preserve">
<style type="text/css">
	.st0{fill:none;}
	.st1{fill:none;stroke:#000000;stroke-miterlimit:10;}
</style>
<g>
	<path d="M137.87,33.67c-0.03,3.56-0.13,6.44-0.43,9.11c2.58,8.15,7.22,12.41,14.21,16.04l-3.15,4.09c-0.1,0.13-0.23,0.2-0.36,0.2
		c-0.13,0-0.3-0.07-0.5-0.17c-5.5-2.87-9.7-7.43-11.99-12.71c-2.02,5.58-6.42,10.13-12.19,12.94c-0.17,0.07-0.3,0.13-0.43,0.13
		c-0.1,0-0.2-0.07-0.33-0.17l-3.31-3.7c6.26-2.9,10.5-6.93,12.02-12.81c0.76-2.94,1.23-7,1.09-13.14l0.23-0.23l4.9,0.17
		L137.87,33.67z"/>
	<path d="M166.57,32.58l0.23-0.26h4.5l0.23,0.23v6.14h5l5.46-0.1l0.23,0.23v3.86L182,42.91l-5.46-0.1h-5v4.95h2.91l5.46-0.1
		l0.23,0.23v3.8l-0.23,0.23l-5.46-0.1h-2.91v5.91h6.75l5.46-0.1l0.23,0.23v3.89l-0.23,0.23l-5.46-0.1h-18.84l-5.5,0.1l-0.23-0.23
		v-3.89l0.23-0.23l5.5,0.1h7.12v-5.91h-1.82l-5.5,0.1l-0.23-0.23v-3.8l0.23-0.23l5.5,0.1h1.82v-4.95h-5.86
		c-0.89,2.74-1.99,5.28-3.31,7.66c-0.17,0.26-0.33,0.4-0.6,0.4c-0.17,0-0.36-0.07-0.63-0.17l-3.58-1.58
		c2.78-4.72,4.57-10.03,5.4-15.31l0.3-0.13l4.27,0.89l0.17,0.3c-0.26,1.32-0.53,2.57-0.83,3.83h4.67V32.58z"/>
	<path d="M187.17,50.4c3.71-3,6.32-5.54,8.25-8.42c-1.59,0.13-3.25,0.17-4.8,0.17l-0.2-0.2l-0.13-4.06l0.23-0.2
		c2.48,0,4.93-0.07,7.38-0.23c0.6-1.35,1.09-2.81,1.56-4.42l0.26-0.17l4.54,0.66l0.2,0.23c-0.4,1.16-0.79,2.15-1.16,3.1
		c1.66-0.26,3.31-0.56,4.97-0.96l0.3,0.17l0.33,3.89l-0.2,0.3c-2.42,0.5-5.13,0.92-7.88,1.25c-0.53,0.79-1.26,1.81-1.92,2.61
		c0.99-0.3,1.79-0.43,3.11-0.43c2.05,0,3.54,1.29,4.04,3.17c2.09-0.79,4.44-1.62,7.02-2.48l0.33,0.13l2.05,4.06l-0.17,0.3
		c-3.34,0.86-6.19,1.72-8.64,2.61c0.07,1.29,0.1,2.9,0.13,4.49l-0.23,0.2l-4.37,0.17l-0.26-0.2c0-0.96,0-1.95,0-2.71
		c-2.02,0.96-3.15,1.88-3.15,3s1.32,1.42,4.27,1.45c2.42,0.03,5.73-0.26,8.64-0.69l0.33,0.2l0.3,4.39l-0.2,0.26
		c-3.15,0.26-5.93,0.43-9.8,0.43c-6.69,0-8.44-2.81-8.44-5.64c0-3.17,2.68-5.38,5.76-7.13c0.6-0.33,1.26-0.66,1.99-0.99
		c-0.17-0.83-0.66-1.25-1.66-1.25c-1.32,0-2.62,0.33-3.77,1.15c-1.46,1.06-3.71,3.17-5.76,5.35L190.08,54l-2.91-3.23V50.4z"/>
	<path d="M227.13,40.87l0.07,0.36c-1.42,1.78-3.05,3.2-4.34,3.99c-0.3,0.17-0.5,0.26-0.66,0.26c-0.13,0-0.27-0.07-0.4-0.17
		l-2.91-2.38c2.09-1.12,3.68-2.61,4.57-3.93l0.3-0.07L227.13,40.87z M234.58,47.73l0.1,0.26c-0.33,0.46-0.7,0.92-1.06,1.39h6.26
		l2.65-0.2l1.99,1.95c0.13,0.13,0.2,0.26,0.2,0.4c0,0.17-0.1,0.33-0.23,0.5c-1.66,2.05-3.38,3.76-5.13,5.18
		c3.08,0.99,6.75,1.35,10.96,1.42l-2.68,4.19c-0.17,0.33-0.23,0.36-0.6,0.33c-4.83-0.4-8.54-1.16-12.22-2.94
		c-4.04,1.88-8.48,2.81-12.22,3.17c-0.4,0-0.53-0.07-0.73-0.36l-2.58-3.63c4.7-0.4,8.58-0.99,11.59-2.01
		c-0.99-0.83-1.92-1.72-2.78-2.71c-1.69,1.25-3.51,2.38-5.46,3.3c-0.13,0.07-0.26,0.1-0.36,0.1c-0.17,0-0.33-0.1-0.5-0.26
		l-2.75-2.74c4.47-1.75,8.18-4.69,10.43-7.62c-1.62,1.09-3.61,1.78-5.73,2.41c-0.1,0.03-0.23,0.07-0.33,0.07
		c-0.2,0-0.4-0.07-0.53-0.23l-2.55-3.17c5.86-1.12,8.51-2.97,8.81-7.59h-4.24l-5.3,0.1l-0.23-0.26v-3.56l0.26-0.2l5.26,0.1h7.35
		v-2.87l0.23-0.26h4.44l0.23,0.23v2.9h7.62l5.33-0.1l0.23,0.23v3.56l-0.23,0.23l-5.33-0.1h-3.38v0.99l0.13,3.7
		c0,3.37-1.09,4.42-5.6,4.42c-0.66,0-0.73-0.07-0.86-0.4l-1.72-3.8c1.09,0,2.02-0.03,2.72-0.1c0.5-0.03,0.7-0.07,0.7-0.69v-4.13
		h-2.95c-0.17,2.77-1.06,5.61-3.11,7.52L234.58,47.73z M231.9,52.65c0.93,0.96,2.02,1.75,3.18,2.44c0.96-0.73,1.82-1.52,2.62-2.44
		H231.9z M244.91,39.15l0.33-0.03c1.99,1.32,3.61,2.77,5,4.52l-0.07,0.33l-3.15,2.71l-0.3-0.07c-1.39-1.78-2.95-3.5-4.77-4.98
		l0.07-0.36L244.91,39.15z"/>
	<path d="M257.63,47.6l-0.86-4.36l0.2-0.26c4.5-0.59,7.78-1.19,12.98-2.34c0.26-0.07,1.46-0.4,1.85-0.4c1.62,0,3.34,1.32,3.34,3.23
		c0,0.96-0.46,1.55-0.89,1.95c-1.69,1.58-3.61,3.27-5.63,5.28c1.59-0.3,3.74,0.76,4.07,2.28c0.2,0.92,0.33,1.78,0.4,2.67
		c0.1,1.52,0.23,1.65,2.78,1.65c1.69,0,3.28-0.13,4.47-0.26l0.3,0.17l0.33,4.49l-0.2,0.3c-1.66,0.1-3.44,0.17-5.56,0.17
		c-5.76,0-6.52-1.39-6.72-3.76c-0.1-1.25-0.17-2.44-0.4-3.86c-0.13-0.66-0.43-0.96-1.19-0.96c-0.66,0-1.19,0.33-2.28,1.55
		c-1.85,2.01-3.54,4.19-5.7,7.16l-0.36,0.1l-4.01-2.77v-0.33c4.9-5.58,8.84-9.74,13.15-14.03c-2.95,0.89-6.22,1.75-9.83,2.51
		L257.63,47.6z M261.33,36.84l1.13-3.99l0.26-0.17c2.98,0.79,6.29,1.25,10.13,1.39l0.2,0.23l-0.83,4.36l-0.3,0.17
		c-3.87-0.33-7.09-0.76-10.43-1.72L261.33,36.84z"/>
	<path d="M292.23,40.8l-0.86-4.22l0.2-0.3c5.03-1.12,10.13-1.91,13.74-2.38c1.66,0,3.05,1.29,3.05,2.87c0,0.59-0.1,1.22-0.6,1.72
		c-2.68,2.64-4.54,4.32-7.28,7.03c1.59-0.79,2.75-0.86,4.14-0.86c5,0,8.34,3.4,8.34,8.52c0,6.01-4.54,9.41-12.18,9.41
		c-3.91,0-7.22-1.62-7.22-5.38c0-2.15,2.38-4.59,5.07-4.59c3.94,0,5.83,2.57,6.72,4.88c1.95-0.92,2.55-2.48,2.55-4.79
		s-1.75-4.16-4.5-4.16c-4.73,0-8.15,3.1-11.65,7.62l-0.33,0.03l-3.54-2.84l-0.03-0.36c4.57-5.21,8.74-9.77,13.15-14.13
		c-2.52,0.53-5.43,1.22-8.48,2.08L292.23,40.8z M298.95,56.48c-0.66,0-1.26,0.26-1.26,0.86c0,0.69,0.76,1.32,2.45,1.32
		c0.46,0,0.79-0.03,1.06-0.1C300.87,57.14,299.74,56.48,298.95,56.48z"/>
	<path d="M145.68,85.2c-0.4-0.56-0.66-1.25-0.66-1.98c0-1.85,1.52-3.37,3.38-3.37c1.82,0,3.34,1.52,3.34,3.37
		c0,1.82-1.52,3.33-3.34,3.33c-0.6,0-1.13-0.17-1.62-0.4c-0.5,5.71-2.35,10.86-5.83,15.22c-2.62,3.33-6.36,5.84-11.39,8.05
		c-0.3,0.13-0.46,0.2-0.63,0.2c-0.2,0-0.36-0.1-0.7-0.36l-4.04-3.23c5.66-1.88,9.34-4.16,12.05-7.43c2.12-2.57,3.51-5.38,4.17-8.61
		h-11.22l-5.07,0.1l-0.3-0.2v-4.55l0.27-0.23l5.03,0.1H145.68z M146.87,83.22c0,0.83,0.7,1.49,1.52,1.49s1.49-0.66,1.49-1.49
		c0-0.86-0.66-1.52-1.49-1.52S146.87,82.36,146.87,83.22z"/>
	<path d="M158.03,107.12l0.17-11.32v-5.64l-0.1-3.99l0.26-0.23l4.87,0.1h10.79l4.73-0.1l0.27,0.23l-0.1,4.29v9.31l0.1,4.52
		l-0.23,0.26l-5.03-0.1h-10.33v2.67H158.03z M173.63,90.58h-10.2v9.31h10.2V90.58z"/>
	<path d="M200.25,90.55c-2.02,2.64-4.17,4.88-6.59,6.83c-0.36,0.26-0.56,0.4-0.79,0.4c-0.13,0-0.3-0.07-0.53-0.2l-3.94-2.38
		c5.2-3.93,8.54-8.02,10.96-13.3l0.3-0.1l4.73,1.75l0.07,0.33c-0.43,0.83-0.86,1.58-1.36,2.38l4.24-0.07l2.52-0.2l2.88,2.67
		c0.3,0.26,0.46,0.46,0.46,0.69c0,0.17-0.07,0.36-0.2,0.66c-4.17,8.94-9.54,15.05-18.94,19.34c-0.43,0.17-0.66,0.26-0.86,0.26
		c-0.17,0-0.33-0.07-0.56-0.26l-4.11-3.17c7.38-2.41,14.34-7.66,18.05-15.68L200.25,90.55z M209.65,83.42l1.72-1.22l0.33-0.03
		c1.23,1.02,2.38,2.18,3.38,3.5l-0.03,0.33l-1.82,1.29h-0.33c-1.03-1.35-1.95-2.44-3.28-3.56L209.65,83.42z M212.76,81.34l1.69-1.22
		l0.33-0.03c1.23,1.02,2.28,2.08,3.28,3.4l-0.03,0.33l-1.72,1.25h-0.33c-1.03-1.35-1.92-2.31-3.24-3.43L212.76,81.34z"/>
	<path d="M223.49,94.67v-4.32l0.3-0.2l4.54,0.1h12.71l4.64-0.1l0.23,0.26c-1.16,10.46-6.16,16.01-15.36,19.18
		c-0.3,0.1-0.53,0.17-0.7,0.17c-0.26,0-0.46-0.1-0.76-0.36l-3.74-3.1c7.62-2.31,12.58-5.78,14.04-11.45h-11.09l-4.57,0.1
		L223.49,94.67z M238.36,87.74h-7.65l-4.04,0.1l-0.23-0.26v-4.26l0.3-0.2l4.01,0.1h7.48l4.57-0.1l0.26,0.23v4.22l-0.23,0.26
		L238.36,87.74z"/>
	<path d="M262.99,89.33c1.82,1.58,5.13,3.37,8.11,4.32l0.13,0.33l-2.32,4.36l-0.36,0.1c-3.18-1.22-6.32-2.9-8.58-5.18v-0.33
		l2.72-3.6H262.99z M263.35,100.29c3.05,2.08,7.02,3.5,12.25,4.55l0.13,0.23l-2.22,4.82l-0.33,0.13c-4.9-1.12-9.87-3.27-13.01-5.54
		l-0.03-0.33l2.88-3.8L263.35,100.29z M266.47,81.7c3.25,1.02,6.26,2.34,9.17,3.96v0.33l-2.88,3.99l-0.33,0.1
		c-2.91-1.82-6.06-3.27-9.24-4.36l-0.03-0.26l2.98-3.73L266.47,81.7z"/>
	<path d="M289.08,89.03l3.21-3.6l0.33-0.07c1.99,0.99,4.64,2.74,6.72,4.55v0.33l-3.44,3.99l-0.3,0.03
		c-1.99-1.91-4.21-3.53-6.49-4.95L289.08,89.03z M314.74,91.77c0.1,0.26,0.13,0.46,0.13,0.63c0,0.23-0.1,0.36-0.33,0.59
		c-5.89,6.47-13.08,11.29-21.82,15.25l-0.33-0.07l-2.98-4.46l0.07-0.33c8.21-3.14,16.69-8.94,23.44-16.8L314.74,91.77z"/>
	<path d="M332.69,90.55c-2.02,2.64-4.17,4.88-6.59,6.83c-0.36,0.26-0.56,0.4-0.79,0.4c-0.13,0-0.3-0.07-0.53-0.2l-3.94-2.38
		c5.2-3.93,8.54-8.02,10.96-13.3l0.3-0.1l4.73,1.75l0.07,0.33c-0.43,0.83-0.86,1.58-1.36,2.38l4.24-0.07l2.52-0.2l2.88,2.67
		c0.3,0.26,0.46,0.46,0.46,0.69c0,0.17-0.07,0.36-0.2,0.66c-4.17,8.94-9.54,15.05-18.94,19.34c-0.43,0.17-0.66,0.26-0.86,0.26
		c-0.17,0-0.33-0.07-0.56-0.26l-4.11-3.17c7.38-2.41,14.34-7.66,18.05-15.68L332.69,90.55z M342.09,83.42l1.72-1.22l0.33-0.03
		c1.22,1.02,2.38,2.18,3.38,3.5l-0.03,0.33l-1.82,1.29h-0.33c-1.03-1.35-1.95-2.44-3.28-3.56L342.09,83.42z M345.2,81.34l1.69-1.22
		l0.33-0.03c1.23,1.02,2.29,2.08,3.28,3.4l-0.03,0.33l-1.72,1.25h-0.33c-1.03-1.35-1.92-2.31-3.25-3.43L345.2,81.34z"/>
	<path d="M376.39,107.48c-2.19-2.87-4.87-5.58-7.35-7.82c-3.34,3.6-6.99,6.04-11.36,8.28c-0.33,0.17-0.56,0.23-0.73,0.23
		c-0.2,0-0.33-0.1-0.53-0.23l-3.91-3c7.62-3.53,14.27-8.52,17.32-15.38h-7.88l-4.93,0.1l-0.23-0.26v-4.49l0.3-0.2l4.97,0.1h9.37
		l3.38-0.17l2.02,1.98c0.23,0.23,0.36,0.4,0.36,0.59c0,0.2-0.1,0.43-0.3,0.79c-1.52,2.94-3.05,5.45-4.57,7.62
		c3.15,2.61,5.63,4.79,8.38,7.89l-0.03,0.36l-3.91,3.63L376.39,107.48z"/>
	<path d="M399.54,90.32c-2.02,2.64-4.17,4.88-6.59,6.83c-0.36,0.26-0.56,0.4-0.79,0.4c-0.13,0-0.3-0.07-0.53-0.2l-3.94-2.38
		c5.2-3.93,8.54-8.02,10.96-13.3l0.3-0.1l4.74,1.75l0.07,0.33c-0.43,0.83-0.86,1.58-1.36,2.38l4.24-0.07l2.52-0.2l2.88,2.67
		c0.3,0.26,0.46,0.46,0.46,0.69c0,0.17-0.07,0.36-0.2,0.66c-4.17,8.94-9.54,15.05-18.94,19.34c-0.43,0.17-0.66,0.26-0.86,0.26
		c-0.17,0-0.33-0.07-0.56-0.26l-4.11-3.17c7.38-2.41,14.34-7.66,18.04-15.68L399.54,90.32z"/>
	<path d="M440.83,98.6h-14.8l-4.93,0.1l-0.23-0.26v-4.72l0.3-0.2l4.74,0.1h14.77l5.1-0.1l0.26,0.23v4.69l-0.23,0.26L440.83,98.6z"/>
	<path d="M450.66,105.04c4.44-3.8,6.92-9.41,7.15-16.8l0.3-0.23l4.67,0.4l0.26,0.26c-0.36,7.86-3.05,13.8-6.92,18.09
		c-0.33,0.33-0.5,0.46-0.73,0.46c-0.13,0-0.3-0.03-0.53-0.17L450.66,105.04z M470.23,99.03c3.97-2.67,7.52-6.01,10.2-9.41l1.46,4.85
		c0.1,0.33,0.17,0.56,0.17,0.73c0,0.23-0.1,0.36-0.3,0.59c-3.21,3.53-6.82,6.67-12.52,10.26c-0.36,0.23-0.56,0.33-0.76,0.33
		c-0.17,0-0.3-0.1-0.53-0.26l-3.21-2.57l0.27-3.73V85.63l0.26-0.23h4.7l0.27,0.26V99.03z"/>
</g>
<g>
	<path d="M122.9,146.97l-3.15,0.04l-0.13-0.11v-2.2l0.13-0.13l3.15,0.06h4.01v-2.43h-2.53l-3.15,0.04l-0.13-0.11v-2.2l0.13-0.13
		l3.15,0.06h2.53v-2.77l0.13-0.11h2.55l0.13,0.11v2.77h2.7l3.15-0.06l0.13,0.13v2.2l-0.13,0.11l-3.15-0.04h-2.7v2.43h4.22l3.15-0.06
		l0.13,0.13v2.2l-0.13,0.11l-3.15-0.04h-3.19c2.05,1.9,4.31,3.23,6.97,4.39l-1.77,2.34c-0.06,0.08-0.11,0.11-0.21,0.11
		c-0.08,0-0.15-0.04-0.29-0.09c-2.47-1.41-4.29-2.96-5.83-4.79l0.19,6.23h-3l0.19-6.02c-1.52,1.92-3.38,3.46-5.7,4.73
		c-0.11,0.06-0.19,0.1-0.27,0.1c-0.1,0-0.15-0.06-0.23-0.13l-1.61-2.03c2.72-1.23,4.77-2.75,6.63-4.83H122.9z"/>
	<path d="M141.02,148.57l0.11,0.13c-0.11,1.94-0.38,3.53-0.87,4.98c-0.08,0.21-0.13,0.29-0.25,0.29c-0.06,0-0.11-0.02-0.21-0.06
		l-1.6-0.72c0.51-1.56,0.78-3.06,0.89-4.84l0.11-0.09L141.02,148.57z M143.76,137.91c-0.67,1.27-1.44,2.62-2.13,3.63
		c0.17,0.13,0.36,0.28,0.55,0.44c0.44-0.78,0.87-1.6,1.33-2.47l0.17-0.08l1.99,1.03l0.08,0.17c-1.01,1.73-2.18,3.42-3.21,4.73
		c0.46-0.04,0.93-0.1,1.39-0.13c-0.13-0.3-0.25-0.59-0.4-0.85l0.06-0.15l1.37-0.68l0.17,0.04c0.29,0.46,0.55,1.03,0.82,1.65
		c1.06-0.42,2.11-0.89,3.08-1.52c-0.7-0.65-1.33-1.41-1.88-2.28v-0.21l1.67-1.12h-0.4l-2.39,0.15l-0.11-0.15v-2.13l0.11-0.11
		l2.51,0.06h4.81l1.16-0.08l1.1,0.97c0.06,0.06,0.09,0.15,0.09,0.29c0,0.09-0.02,0.21-0.08,0.34c-0.65,1.63-1.52,2.96-2.51,4.07
		c1.03,0.48,2.2,0.85,3.57,1.14l-1.33,2.17c-0.1,0.15-0.17,0.21-0.3,0.21c-0.08,0-0.13,0-0.23-0.04c-1.35-0.46-2.6-1.01-3.7-1.69
		c-1.04,0.76-2.17,1.35-3.29,1.84c-0.11,0.06-0.21,0.08-0.28,0.08c-0.11,0-0.21-0.04-0.3-0.15l-1.08-1.31
		c0.17,0.46,0.32,0.91,0.46,1.33l-0.06,0.17l-1.6,0.76l-0.19-0.1c-0.08-0.3-0.15-0.59-0.25-0.87l-0.85,0.17v3.27l0.09,4.67h-2.53
		l0.09-4.67v-2.91c-0.76,0.11-1.54,0.21-2.37,0.3l-0.17-0.1l-0.48-2.03l0.13-0.13c0.49-0.02,0.97-0.04,1.44-0.06
		c0.38-0.55,0.76-1.08,1.12-1.65c-0.85-0.8-1.71-1.48-2.75-2.13l-0.02-0.15l1.01-1.58l0.17-0.02c0.17,0.1,0.32,0.19,0.49,0.3
		c0.53-1.08,1.01-2.15,1.44-3.34l0.17-0.08l2.17,0.84L143.76,137.91z M145.33,148.13l0.15,0.08c0.38,1.03,0.63,1.98,0.82,2.94
		l-0.08,0.17l-1.61,0.59l-0.13-0.1c-0.19-1.25-0.36-2.17-0.67-3.12l0.09-0.13L145.33,148.13z M149.55,150.6H149l-2.47,0.06
		l-0.13-0.11v-2.01l0.11-0.11l2.49,0.06h0.55v-1.8l0.13-0.15h2.39l0.13,0.13v1.82h0.74l2.51-0.06l0.11,0.09v2.05l-0.11,0.1
		l-2.51-0.06h-0.74v1.75h1.75l2.51-0.06l0.11,0.09v2.07l-0.11,0.1l-2.51-0.06h-6.38l-2.49,0.06l-0.13-0.11v-2.03l0.11-0.11
		l2.51,0.06h1.98V150.6z M149.02,140.09c0.57,0.8,1.22,1.48,1.96,2.09c0.66-0.68,1.18-1.39,1.54-2.09H149.02z"/>
	<path d="M160.06,149.52l0.15,0.1c0.25,0.87,0.4,1.69,0.51,2.72l-0.08,0.15l-1.1,0.25l-0.13-0.11c-0.08-0.76-0.17-1.56-0.32-2.32
		c-0.11,1.29-0.28,2.28-0.47,3l-0.15,0.09l-1.37-0.32l-0.06-0.15c0.25-1.14,0.44-2.26,0.53-3.5l0.15-0.11l1.35,0.23l0.08,0.15
		L160.06,149.52z M171.74,144.79h0.8l2.24-0.06l0.13,0.13l-0.06,1.6v1.58l0.06,1.67l-0.15,0.17l-2.17-0.06h-0.17
		c0.8,1.2,1.8,2.15,3.34,3.02l-1.39,2.07c-0.08,0.11-0.15,0.17-0.21,0.17c-0.08,0-0.15-0.04-0.25-0.11
		c-1.22-0.91-2.41-2.22-3.13-3.61c-0.78,1.6-2.11,2.75-3.5,3.65c-0.11,0.08-0.19,0.11-0.25,0.11s-0.11-0.06-0.19-0.13l-1.6-1.46
		c-0.11,0.38-0.23,0.63-0.38,0.8c-0.36,0.4-0.87,0.68-2.3,0.68h-0.44c-0.23,0-0.3-0.06-0.38-0.25l-0.85-2.15
		c0.53,0.04,1.14,0.06,1.31,0.06c0.48,0,0.72-0.08,0.87-0.29c0.11-0.15,0.19-0.46,0.23-1.14l-0.49,0.25l-0.17-0.06
		c-0.17-0.72-0.42-1.48-0.63-1.94l0.08-0.15l0.78-0.28l0.15,0.08c0.13,0.27,0.25,0.55,0.34,0.85c0.02-0.38,0.02-0.82,0.02-1.33
		h-3.65l-1.67,0.06l-0.13-0.13l0.06-2.41v-5.55l-0.06-2.75l0.13-0.15l1.86,0.06h3.48l2.13-0.06l0.17,0.11v1.94l-0.15,0.11
		l-2.15-0.06v0.99l1.58-0.06l0.17,0.11v1.12c1.8-1.22,3.36-2.98,4.2-5.05l0.17-0.06l2.28,0.55l0.06,0.17
		c-0.08,0.15-0.13,0.3-0.21,0.46c0.87,1.31,2.2,2.45,4.1,3.48l-1.5,1.94c-0.09,0.11-0.15,0.17-0.23,0.17
		c-0.08,0-0.15-0.04-0.27-0.13c-0.15-0.11-0.3-0.25-0.46-0.36v0.68l-0.11,0.1l-1.46-0.04V144.79z M161.26,140.82v-0.99h-0.99v0.99
		H161.26z M161.26,143.69v-1.03h-0.99v1.03H161.26z M160.27,146.61h0.99v-1.08h-0.99V146.61z M161.5,149.31l0.15,0.09
		c0.25,0.53,0.51,1.39,0.7,2.22l-0.08,0.15l-0.99,0.34l-0.15-0.1c-0.17-0.93-0.34-1.65-0.57-2.3l0.06-0.17L161.5,149.31z
		 M167.81,143.93l-0.13-0.11v-0.67c-0.19,0.15-0.38,0.28-0.55,0.42c-0.17,0.11-0.29,0.17-0.38,0.17c-0.1,0-0.17-0.04-0.27-0.13
		l-1.31-1.39v0.38l-0.15,0.11l-1.6-0.06v1.03l1.58-0.06l0.17,0.11v1.73l-0.15,0.11l-1.6-0.06v1.08h0.57l1.73-0.04l0.11,0.11
		c-0.04,3.31-0.19,5.32-0.48,6.5c1.35-0.7,2.87-1.86,3.42-3.23l0.06-0.13h-0.32l-2.2,0.06l-0.13-0.15l0.1-1.75v-1.52l-0.06-1.6
		l0.13-0.13l2.24,0.06h0.72v-0.89L167.81,143.93z M168.42,146.5v1.61h0.78c0.04-0.53,0.06-1.08,0.08-1.61H168.42z M172.05,142.05
		c-0.61-0.59-1.14-1.2-1.61-1.88c-0.46,0.66-0.97,1.29-1.54,1.88l1.03,0.02h1.16L172.05,142.05z M171.72,146.5
		c-0.02,0.53-0.06,1.08-0.1,1.61h0.93v-1.61H171.72z"/>
	<path d="M177.39,153.54c1.03-3.31,1.98-6.19,2.94-9.1c-0.87,0.13-1.9,0.27-2.85,0.38l-0.15-0.11l-0.42-2.3l0.11-0.13
		c1.5-0.11,2.91-0.28,4.22-0.47c0.46-1.31,0.89-2.66,1.39-4.12l0.19-0.1l2.56,0.63l0.06,0.21c-0.4,1.08-0.76,2.09-1.08,3.02
		c0.38-0.02,0.74-0.04,1.1-0.04c1.58,0,3.06,0.97,3.04,3.74c-0.02,2.51-0.36,5.02-0.87,6.5c-0.68,2.15-1.94,2.6-2.94,2.6
		c-0.7,0-1.5-0.11-2.34-0.34c-0.13-0.04-0.19-0.08-0.21-0.34l-0.23-2.7c0.61,0.23,1.44,0.42,1.9,0.42c0.61,0,0.87-0.11,1.16-1.01
		c0.3-0.97,0.68-3.31,0.68-4.96c0-1.14-0.13-1.37-0.97-1.37c-0.34,0-0.78,0.04-1.25,0.08c-1.27,3.61-2.22,6.55-3.27,10.24
		l-0.21,0.06l-2.51-0.63L177.39,153.54z M188.71,142.13l2.01-1.27h0.19c1.61,1.77,2.83,3.84,3.65,5.98l-0.08,0.19l-2.37,1.37
		l-0.17-0.04c-0.74-2.18-1.82-4.43-3.27-6.04L188.71,142.13z"/>
	<path d="M199.39,142.2l2.37,0.46l0.11,0.17c-0.38,1.39-0.59,2.62-0.76,4.05c1.44-1.5,3.36-2.32,5.43-2.32c3.17,0,4.9,1.98,4.9,4.37
		c0,3.7-3.59,5.3-8.89,5.59c-0.34,0-0.46-0.02-0.61-0.25l-1.58-2.32c5.09-0.15,7.92-1.16,7.92-2.98c0-1.14-0.4-1.98-1.98-1.98
		c-1.71,0-3.82,0.95-5.36,3.65l-0.19,0.09l-2.32-0.21l-0.13-0.17c-0.04-2.62,0.3-5.36,0.87-8.07L199.39,142.2z M200.81,139.75
		l1.18-2.07l0.19-0.1c1.48,0.4,2.89,0.87,4.6,1.77l0.04,0.19l-1.29,2.22l-0.19,0.04c-1.54-0.85-2.81-1.42-4.46-1.9L200.81,139.75z"
		/>
	<path d="M214.63,146.17l-0.13-0.11v-1.84l0.11-0.1l2.32,0.06h13.17l2.22-0.06l0.11,0.1v1.82l-0.13,0.13l-2.2-0.06h-6.46v4.33
		l0.06,2.77c0.87-0.38,1.73-0.82,2.49-1.39c-0.57-0.67-1.04-1.42-1.44-2.26l0.06-0.17l1.77-0.72h-0.25l-2.15,0.06l-0.13-0.04v-1.9
		l0.11-0.11l2.07,0.06h3.69l0.68-0.06l0.8,0.8c0.13,0.13,0.21,0.23,0.21,0.4c0,0.09-0.04,0.21-0.08,0.34
		c-0.4,1.27-1.08,2.47-1.94,3.51c0.82,0.49,1.8,0.87,3,1.2l-1.22,1.92c-0.08,0.13-0.13,0.19-0.25,0.19c-0.06,0-0.13-0.02-0.23-0.06
		c-1.1-0.38-2.11-0.89-3-1.56c-0.78,0.63-1.6,1.14-2.45,1.54c-0.15,0.08-0.25,0.11-0.32,0.11c-0.13,0-0.19-0.1-0.32-0.27l-1.1-1.31
		l0.04,1.65h-2.62l0.04-1.79c-1.67,0.36-3.53,0.68-5.89,1.06l-0.15-0.06l-0.67-1.84l0.13-0.17c0.65-0.06,1.27-0.13,1.9-0.21v-6.02
		L214.63,146.17z M229.84,140.87l0.06,2.68l-0.17,0.13l-2.6-0.06h-7.22l-2.85,0.06l-0.13-0.13l0.06-2.6V140l-0.06-2.26l0.13-0.11
		l2.94,0.06h6.93l2.81-0.06l0.15,0.15l-0.06,2.32V140.87z M218.86,146.12v0.8h2.34v-0.8H218.86z M218.86,148.45v0.8h2.34v-0.8
		H218.86z M218.86,151.87c0.78-0.1,1.54-0.19,2.32-0.32l0.02-0.76h-2.34V151.87z M227.15,139.32h-7.54v0.65h7.54V139.32z
		 M219.61,141.99h7.54v-0.63h-7.54V141.99z M226.73,148.76c0.32,0.57,0.67,1.06,1.06,1.52c0.38-0.51,0.68-1.04,0.89-1.6h-2.11
		L226.73,148.76z"/>
	<path d="M240.96,137.07l0.13-0.15h2.55l0.13,0.13v1.71h4.24l3.06-0.06l0.13,0.13v2.05l-0.13,0.13l-3.06-0.06h-11.19l-3.04,0.06
		l-0.13-0.15v-2.05l0.15-0.11l3.02,0.06h4.14V137.07z M244.42,153.24h-3.82v0.82h-2.36l0.08-2.37v-1.18l-0.04-1.35l0.11-0.11
		l1.86,0.06h3.99l2.01-0.06l0.13,0.11l-0.04,1.35v1.14l0.04,1.06c0.4-0.02,0.8-0.04,1.01-0.08s0.32-0.04,0.32-0.34v-3.84h-10.66
		v6.71h-2.7l0.09-4.24v-2.2l-0.06-2.15l0.13-0.13l2.43,0.06h10.92l2.43-0.06l0.13,0.13l-0.06,2.15v1.61l0.08,2.66
		c0,1.73-1.1,2.13-3.65,2.13c-0.3,0-0.34-0.02-0.42-0.21l-0.72-1.63L244.42,153.24z M237.31,145.93l-0.13-0.15l0.1-1.75v-0.74
		l-0.06-1.6l0.13-0.13l2.05,0.06h6.02l2.05-0.06l0.13,0.13l-0.06,1.6v0.8l0.06,1.67l-0.15,0.17l-2.17-0.06h-5.78L237.31,145.93z
		 M244.99,144.18v-0.87h-5.22v0.87H244.99z M244.1,151.59v-0.85h-3.5v0.85H244.1z"/>
	<path d="M260.82,151.93c4.08-0.68,5.93-2.64,5.93-4.92c0-2.89-1.6-4.71-3.53-5.11c-0.38,3.59-1.61,6.93-2.93,8.85
		c-1.03,1.5-2.09,2.05-3.57,2.05c-1.14,0-1.96-0.55-2.68-1.69c-0.55-0.85-0.93-1.9-0.93-3.44c0-4.6,3.44-8.32,8.66-8.32
		c5.19,0,7.96,3.48,7.96,7.69c0,3.46-2.43,6.08-6.46,7.03c-0.27,0.02-0.4,0.02-0.61-0.19L260.82,151.93z M255.72,147.67
		c0,0.63,0.11,1.08,0.32,1.44c0.21,0.38,0.47,0.63,0.78,0.63c0.44,0,0.99-0.44,1.5-1.46c1.06-2.13,1.6-4.14,1.88-6.46
		C257.43,142.3,255.72,144.75,255.72,147.67z"/>
	<path d="M285.99,148.11l3.15-0.06l0.13,0.13v2.13l-0.13,0.13l-3.15-0.06h-3.88v0.36l0.08,1.86c0,2.13-0.82,2.53-3.91,2.53
		c-0.38,0-0.42-0.04-0.49-0.21l-1.06-2.24c0.89,0,1.79-0.04,2.11-0.08c0.4-0.04,0.51-0.13,0.51-0.57v-1.65h-4.39l-3.15,0.06
		l-0.13-0.13v-2.13l0.13-0.13l3.15,0.06h4.39v-1.29l0.15-0.15h1.01c0.51-0.3,0.99-0.59,1.41-0.93h-4.03l-2.49,0.06l-0.13-0.11v-2.05
		l0.11-0.11l2.51,0.06h5.79l1.52-0.1l0.84,0.93v-1.75h-11.3v2.43h-2.81l0.1-2.51v-0.53l-0.06-1.61l0.13-0.13l2.83,0.06
		c-0.4-0.76-0.87-1.42-1.42-2.09l0.06-0.19l2.07-0.97l0.19,0.08c0.72,0.76,1.25,1.5,1.82,2.41l-0.06,0.17l-1.14,0.59h3.21
		c-0.4-0.87-0.84-1.61-1.42-2.36l0.04-0.17l2.13-0.93l0.17,0.08c0.68,0.78,1.2,1.5,1.75,2.47l-0.08,0.19l-1.52,0.72h2.39
		c0.55-1.04,1.03-2.09,1.52-3.38l0.17-0.09l2.49,0.82l0.1,0.17c-0.49,0.99-0.93,1.79-1.37,2.49l2.75-0.06l0.13,0.13l-0.06,1.44v0.7
		l0.09,2.51h-2.51c-0.02,0.11-0.1,0.21-0.23,0.32c-1.18,0.93-2.53,1.84-4.08,2.68v0.02H285.99z"/>
	<path d="M296.37,143.21c-1.5,0.65-3.13,1.27-4.92,1.84l-0.19-0.02l-0.93-1.94l0.06-0.19c0.97-0.25,1.9-0.49,2.79-0.76
		c-0.42-0.63-0.85-1.16-1.37-1.65l0.02-0.17l1.16-0.82l-2.03,0.06l-0.13-0.11v-1.92l0.11-0.11l2.09,0.06h3.44l2.37-0.06l0.13,0.13
		l-0.06,1.94v1.8l0.1,2.72c0,0.44-0.04,0.8-0.15,1.1l1.82,0.48l0.02,0.19c-0.17,0.34-0.38,0.7-0.59,1.06h3.13l2.62-0.06l0.13,0.13
		l-0.06,2.05v2.3l0.1,3.7h-2.79v-0.7h-7.66v0.8h-2.68l0.1-3.88v-2.22l-0.06-2.05l0.11-0.13l2.62,0.06h1.63
		c0.11-0.23,0.21-0.46,0.3-0.68c-0.46,0.13-1.04,0.17-1.79,0.17c-0.29,0-0.36-0.06-0.46-0.3l-0.67-1.77c0.57,0,0.99-0.02,1.35-0.06
		c0.23-0.02,0.3-0.1,0.3-0.4V143.21z M296.37,139.51h-2.49c0.42,0.32,0.7,0.63,1.22,1.31l-0.02,0.17l-1.25,0.97
		c0.85-0.29,1.71-0.53,2.55-0.84V139.51z M303.24,148.76h-7.66v0.89h7.66V148.76z M303.24,151.51h-7.66v0.87h7.66V151.51z
		 M299.44,142.81c0.85-0.21,1.69-0.44,2.49-0.67c-0.53-0.78-0.91-1.2-1.39-1.65l0.02-0.17l1.16-0.82l-1.99,0.06l-0.13-0.11v-1.92
		l0.11-0.11l2.13,0.06h3.44l2.39-0.06l0.13,0.13l-0.06,1.94v1.9l0.1,2.64c0,1.84-1.06,2.26-3.25,2.26c-0.29,0-0.36-0.06-0.46-0.3
		l-0.66-1.69c0.57,0,0.99-0.02,1.37-0.06c0.23-0.02,0.3-0.1,0.3-0.4v-0.44c-1.43,0.55-2.96,1.04-4.62,1.58l-0.19-0.02l-0.95-1.96
		L299.44,142.81z M302.58,141.96c0.85-0.25,1.71-0.51,2.56-0.8v-1.65h-2.55c0.48,0.36,0.84,0.76,1.27,1.31l-0.02,0.17L302.58,141.96
		z"/>
	<path d="M314.04,143.13l0.04,0.19c-0.91,1.44-1.86,2.53-3.04,3.55c-0.11,0.09-0.19,0.13-0.25,0.13c-0.08,0-0.15-0.06-0.23-0.15
		l-1.39-1.54c1.2-0.93,2.19-1.96,2.85-3.23l0.19-0.04L314.04,143.13z M316.16,152.63c-0.32-0.4-0.67-0.78-1.03-1.18
		c-0.99,1.41-2.2,2.47-3.69,3.34c-0.11,0.06-0.19,0.1-0.27,0.1c-0.11,0-0.21-0.06-0.32-0.17l-1.62-1.54
		c1.73-0.85,3.04-2.01,4.05-3.5c-0.68-0.59-1.43-1.14-2.19-1.61v-0.19l1.31-1.41l0.19-0.02c0.63,0.36,1.21,0.74,1.79,1.14
		c0.23-0.55,0.44-1.14,0.61-1.77l0.15-0.04l2.09,0.85l0.08,0.17c-0.27,0.85-0.57,1.65-0.89,2.37c0.55,0.48,1.08,0.99,1.62,1.52
		l-0.02,0.19l-1.67,1.73H316.16z M320.8,137.07l0.13-0.13h2.41l0.13,0.13v1.77c0,0.74,0,1.48-0.02,2.18h0.49l2.83-0.06l0.13,0.13
		c-0.04,4.22-0.04,8.05-0.25,10.39c-0.23,2.47-0.78,3.5-3.67,3.5c-0.32,0-0.44-0.11-0.55-0.36l-1.01-2.32
		c0.59,0.04,1.08,0.02,1.65-0.02c0.59-0.08,0.87-0.29,0.97-1.69c0.13-1.96,0.17-4.83,0.17-7.29h-0.82c-0.08,1.86-0.19,3.5-0.44,4.79
		c-0.49,2.64-1.82,5.22-4.86,6.99c-0.09,0.06-0.17,0.1-0.25,0.1s-0.13-0.04-0.23-0.11l-1.9-1.6c3.04-1.71,4.14-3.48,4.62-5.66
		c0.25-1.1,0.36-2.41,0.4-4.48l-2.11,0.04l-0.13-0.13v-1.39l-2.15-0.06h-4.28l-2.3,0.06l-0.13-0.13v-2.03l0.13-0.13l2.3,0.06h1.04
		v-2.53l0.13-0.13h2.3l0.13,0.13v2.53h0.67l2.3-0.06l0.13,0.13v1.29l1.99,0.04V137.07z M318.04,146.74h-0.19
		c-0.95-1.27-2.07-2.47-3-3.25l0.02-0.19l1.44-1.33h0.19c1.16,0.85,2.22,1.86,3.12,2.91l-0.02,0.19L318.04,146.74z"/>
	<path d="M336,148.72l0.13-0.13h2.53l0.12,0.15v0.89h4.27l3.15-0.06l0.13,0.13v2.07l-0.13,0.13l-3.06-0.06h-4.37v0.48l0.09,2.85
		h-2.96l0.1-2.85v-0.48h-4.31l-3.04,0.06l-0.13-0.15v-2.07l0.15-0.11l3.02,0.06H336V148.72z M332.94,146.88
		c-0.53,0.74-1.18,1.5-2.05,2.37h-0.21l-1.84-1.48l-0.04-0.17c1.03-0.91,1.9-1.82,2.68-2.93c-0.78-0.95-1.52-1.65-2.34-2.22
		l0.04-0.19l1.58-1.33l0.17-0.02c0.82,0.53,1.56,1.16,2.32,1.9l0.72-0.89l0.13-0.02c0.25,0.13,0.47,0.27,0.72,0.4
		c0.32-0.51,0.63-1.03,0.93-1.56h-3.69l-3.04,0.06l-0.13-0.15v-2.05l0.15-0.11l3.02,0.06h3.89v-1.46l0.13-0.15h2.58l0.13,0.13v1.48
		h3.95l3.06-0.06l0.13,0.13v2.05l-0.13,0.13l-3.06-0.06h-5.72l0.99,0.51l0.02,0.17c-0.63,0.87-1.1,1.48-1.58,2.01
		c0.25,0.19,0.47,0.38,0.7,0.59c0.74-0.87,1.37-1.73,1.9-2.47l0.17-0.04l1.77,1.16l0.02,0.17c-0.97,1.2-2.22,2.55-3.3,3.55
		c0.63-0.02,1.25-0.04,1.88-0.08c-0.17-0.34-0.34-0.65-0.53-0.93l0.1-0.17l1.48-0.59l0.17,0.06c0.74,1.01,1.35,2.11,1.8,3.25
		l-0.04,0.17l-1.8,0.74l-0.19-0.08c-0.08-0.27-0.17-0.51-0.25-0.76c-1.98,0.23-4.29,0.4-6.88,0.59l-0.17-0.11L332.94,146.88z
		 M333.19,146.1c0.08,0.08,0.13,0.19,0.08,0.32c0.53,0.02,1.06,0.02,1.62,0.02c0.3-0.27,0.59-0.57,0.87-0.85
		c-0.86-0.76-1.8-1.42-2.79-1.99l-1.29,1.08h-0.17L333.19,146.1z M345.52,142.13v0.19c-0.74,0.87-1.56,1.61-2.38,2.18
		c-0.15,0.1-0.25,0.15-0.34,0.15c-0.12,0-0.19-0.08-0.3-0.19l-1.46-1.41c0.95-0.65,1.82-1.42,2.45-2.22l0.15-0.02L345.52,142.13z
		 M343.37,144.6l0.17-0.02c0.95,0.7,1.8,1.48,2.64,2.45l0.02,0.19l-1.84,1.5h-0.21c-0.72-1.03-1.48-1.96-2.38-2.68l0.02-0.17
		L343.37,144.6z"/>
	<path d="M348.86,144.52l-0.63-2.51l0.08-0.15c5.3-1.29,9.54-2.17,14.89-3.13l0.17,0.09l0.55,2.53l-0.13,0.17
		c-2.11,0.15-3.95,0.53-5.11,1.48c-1.77,1.42-2.75,3.15-2.75,4.94c0,1.46,0.72,2.22,1.84,2.56c1.04,0.32,2.56,0.44,4.54,0.42
		l0.13,0.13l-0.15,2.89l-0.15,0.11c-2.38,0.04-4.45-0.21-6-0.87c-1.88-0.8-3.06-2.39-3.06-4.98c0-2.34,1.31-4.35,2.55-5.36
		c-1.86,0.46-3.89,0.99-6.59,1.75L348.86,144.52z M360.89,144.56l0.99-0.7l0.19-0.02c0.7,0.59,1.37,1.25,1.94,2.01l-0.02,0.19
		l-1.04,0.74h-0.19c-0.59-0.78-1.12-1.41-1.88-2.05L360.89,144.56z M362.67,143.36l0.97-0.7l0.19-0.02c0.7,0.59,1.31,1.2,1.88,1.96
		l-0.02,0.19l-0.99,0.72h-0.19c-0.59-0.78-1.1-1.33-1.86-1.98L362.67,143.36z"/>
	<path d="M380.69,152.8c-1.25-1.65-2.79-3.21-4.22-4.5c-1.92,2.07-4.01,3.48-6.52,4.77c-0.19,0.09-0.32,0.13-0.42,0.13
		c-0.12,0-0.19-0.06-0.3-0.13l-2.24-1.73c4.37-2.03,8.19-4.9,9.94-8.85h-4.52l-2.83,0.06l-0.13-0.15v-2.58l0.17-0.11l2.85,0.06h5.38
		l1.94-0.1l1.16,1.14c0.13,0.13,0.21,0.23,0.21,0.34c0,0.11-0.06,0.25-0.17,0.46c-0.87,1.69-1.75,3.13-2.62,4.39
		c1.8,1.5,3.23,2.75,4.81,4.54l-0.02,0.21l-2.24,2.09L380.69,152.8z"/>
	<path d="M397.35,140.21l2.18-0.4l0.13,0.11l0.4,2.37l-0.12,0.15l-2.24,0.29l-2.26,0.34l0.4,2.24l3.04-0.44l2.38-0.42l0.17,0.1
		l0.4,2.37l-0.09,0.17l-2.28,0.29l-3.13,0.46l0.23,1.23l0.89,4.37l-3.13,0.63l-0.68-4.26l-0.29-1.52l-3.36,0.49l-2.32,0.42
		l-0.17-0.08l-0.47-2.39l0.11-0.17l2.41-0.3l3.32-0.49l-0.4-2.24l-2.03,0.3l-2.22,0.4l-0.19-0.1l-0.46-2.37l0.11-0.17l2.32-0.29
		l1.99-0.3l-0.42-2.3l0.1-0.19l2.72-0.44l0.17,0.13l0.44,2.34L397.35,140.21z"/>
	<path d="M404.3,151.4c2.55-2.18,3.97-5.41,4.1-9.67l0.17-0.13l2.68,0.23l0.15,0.15c-0.21,4.52-1.75,7.94-3.97,10.41
		c-0.19,0.19-0.29,0.27-0.42,0.27c-0.08,0-0.17-0.02-0.3-0.1L404.3,151.4z M415.53,147.94c2.28-1.54,4.31-3.46,5.85-5.41l0.84,2.79
		c0.06,0.19,0.1,0.32,0.1,0.42c0,0.13-0.06,0.21-0.17,0.34c-1.84,2.03-3.91,3.84-7.18,5.91c-0.21,0.13-0.32,0.19-0.44,0.19
		c-0.09,0-0.17-0.06-0.3-0.15l-1.84-1.48l0.15-2.15v-8.17l0.15-0.13h2.7l0.15,0.15V147.94z"/>
	<path d="M424.1,147.58c2.13-1.73,3.63-3.19,4.73-4.84c-0.91,0.08-1.86,0.09-2.76,0.09l-0.11-0.11l-0.08-2.34l0.13-0.11
		c1.43,0,2.83-0.04,4.24-0.13c0.34-0.78,0.63-1.61,0.89-2.55l0.15-0.09l2.6,0.38l0.11,0.13c-0.23,0.67-0.46,1.23-0.66,1.79
		c0.95-0.15,1.9-0.32,2.85-0.55l0.17,0.1l0.19,2.24l-0.11,0.17c-1.39,0.28-2.95,0.53-4.52,0.72c-0.3,0.46-0.72,1.04-1.1,1.5
		c0.57-0.17,1.03-0.25,1.79-0.25c1.18,0,2.03,0.74,2.32,1.82c1.2-0.46,2.54-0.93,4.03-1.42l0.19,0.08l1.18,2.34l-0.09,0.17
		c-1.92,0.49-3.55,0.99-4.96,1.5c0.04,0.74,0.06,1.67,0.08,2.58l-0.13,0.11l-2.51,0.09l-0.15-0.11c0-0.55,0-1.12,0-1.56
		c-1.16,0.55-1.8,1.08-1.8,1.73s0.76,0.82,2.45,0.84c1.39,0.02,3.29-0.15,4.96-0.4l0.19,0.11l0.17,2.53l-0.11,0.15
		c-1.8,0.15-3.4,0.25-5.62,0.25c-3.84,0-4.84-1.61-4.84-3.25c0-1.82,1.54-3.1,3.3-4.1c0.34-0.19,0.72-0.38,1.14-0.57
		c-0.1-0.48-0.38-0.72-0.95-0.72c-0.76,0-1.5,0.19-2.17,0.67c-0.84,0.61-2.13,1.82-3.3,3.08l-0.19,0.02l-1.67-1.86V147.58z"/>
	<path d="M448.37,143.21c-1.5,0.65-3.13,1.27-4.92,1.84l-0.19-0.02l-0.93-1.94l0.06-0.19c0.97-0.25,1.9-0.49,2.79-0.76
		c-0.42-0.63-0.86-1.16-1.37-1.65l0.02-0.17l1.16-0.82l-2.03,0.06l-0.13-0.11v-1.92l0.11-0.11l2.09,0.06h3.44l2.38-0.06l0.13,0.13
		l-0.06,1.94v1.8l0.1,2.72c0,0.44-0.04,0.8-0.15,1.1l1.82,0.48l0.02,0.19c-0.17,0.34-0.38,0.7-0.59,1.06h3.13l2.62-0.06l0.13,0.13
		l-0.06,2.05v2.3l0.1,3.7h-2.79v-0.7h-7.66v0.8h-2.68l0.09-3.88v-2.22l-0.06-2.05l0.12-0.13l2.62,0.06h1.63
		c0.12-0.23,0.21-0.46,0.3-0.68c-0.46,0.13-1.04,0.17-1.79,0.17c-0.29,0-0.36-0.06-0.46-0.3l-0.66-1.77c0.57,0,0.99-0.02,1.35-0.06
		c0.23-0.02,0.3-0.1,0.3-0.4V143.21z M448.37,139.51h-2.49c0.42,0.32,0.7,0.63,1.21,1.31l-0.02,0.17l-1.25,0.97
		c0.85-0.29,1.71-0.53,2.54-0.84V139.51z M455.24,148.76h-7.66v0.89h7.66V148.76z M455.24,151.51h-7.66v0.87h7.66V151.51z
		 M451.44,142.81c0.85-0.21,1.69-0.44,2.49-0.67c-0.53-0.78-0.91-1.2-1.39-1.65l0.02-0.17l1.16-0.82l-1.99,0.06l-0.13-0.11v-1.92
		l0.11-0.11l2.13,0.06h3.44l2.39-0.06l0.13,0.13l-0.06,1.94v1.9l0.1,2.64c0,1.84-1.06,2.26-3.25,2.26c-0.29,0-0.36-0.06-0.46-0.3
		l-0.66-1.69c0.57,0,0.99-0.02,1.37-0.06c0.23-0.02,0.3-0.1,0.3-0.4v-0.44c-1.43,0.55-2.96,1.04-4.62,1.58l-0.19-0.02l-0.95-1.96
		L451.44,142.81z M454.58,141.96c0.85-0.25,1.71-0.51,2.56-0.8v-1.65h-2.55c0.48,0.36,0.84,0.76,1.27,1.31l-0.02,0.17L454.58,141.96
		z"/>
	<path d="M466.04,155.16h-2.62l0.1-4.9v-2.37c-0.3,0.4-0.61,0.74-0.99,1.06c-0.1,0.08-0.19,0.11-0.25,0.11
		c-0.11,0-0.19-0.08-0.23-0.21l-0.88-2.32c1.44-1.23,2.83-2.79,3.99-5.15l0.19-0.02l1.98,1.1l0.06,0.17
		c-0.44,0.95-0.88,1.73-1.35,2.45V155.16z M465.28,136.94l1.98,1.2l0.06,0.17c-1.27,1.79-2.74,3.17-4.18,4.22
		c-0.1,0.08-0.17,0.11-0.23,0.11c-0.08,0-0.15-0.08-0.25-0.21l-1.39-1.92c1.48-0.91,2.83-2.05,3.82-3.55L465.28,136.94z
		 M469.25,150.39l-2.49,0.06l-0.13-0.11v-1.96l0.11-0.11l2.51,0.06h4.96v-0.95h-4.1l-2.83,0.06l-0.13-0.13v-1.92l0.13-0.13
		l2.83,0.06h5.68l2.98-0.06l0.13,0.13v1.92l-0.13,0.13l-2.05-0.04v0.93l2.56-0.06l0.11,0.09v1.99l-0.11,0.1l-2.55-0.06l0.06,2.41
		c0,1.71-0.82,2.34-3.36,2.34c-0.38,0-0.42-0.04-0.49-0.23l-0.84-1.94l-1.1,1.01h-0.17c-0.59-0.82-1.61-1.79-2.3-2.28l0.02-0.17
		l1.29-1.14H469.25z M470.88,144.5l-2.71,0.06l-0.13-0.13l0.06-2.62v-1.77l-0.06-2.24l0.13-0.13l2.71,0.06h4.05l2.72-0.06l0.13,0.13
		l-0.06,2.34v1.58l0.06,2.72l-0.13,0.13l-2.72-0.06H470.88z M475.19,139.47h-4.58v0.76h4.58V139.47z M470.61,141.98v0.78h4.58v-0.78
		H470.61z M470.73,150.39c0.66,0.49,1.44,1.22,2.05,1.88l-0.06,0.13l-0.44,0.4c0.72-0.02,1.12-0.04,1.41-0.08
		c0.4-0.02,0.51-0.13,0.51-0.59v-1.75H470.73z"/>
</g>
<g>
	<path d="M147.99,214.78c-1.01,1.15-1.99,2.09-2.98,2.95c1.18-0.07,2.38-0.14,3.55-0.22c-0.31-0.31-0.62-0.6-0.96-0.89l0.05-0.22
		l1.99-1.39l0.22-0.02c1.75,1.42,3.02,2.88,4.32,4.58l-0.05,0.19l-2.28,1.73l-0.24-0.05c-0.38-0.6-0.72-1.13-1.08-1.63
		c-1.99,0.19-3.96,0.36-5.93,0.5v1.8l0.12,4.08h-3.7l0.12-4.08v-1.56c-2.71,0.19-5.5,0.34-8.47,0.46l-0.22-0.12l-0.86-2.64
		l0.17-0.22c2.81-0.02,5.21-0.05,7.49-0.1c-1.37-0.98-2.74-1.78-4.32-2.52v-0.22l1.7-1.85l0.22-0.07c0.55,0.24,1.08,0.48,1.58,0.74
		c0.36-0.48,0.72-0.98,1.06-1.51h-1.68l-3.67,0.07l-0.17-0.17l0.07-3.07v-2.57l-0.07-2.62l0.17-0.14l3.67,0.07h10.37l3.65-0.07
		l0.19,0.19l-0.07,2.57v2.57l0.07,3.07l-0.19,0.17l-3.65-0.07h-6.6l1.34,0.67l0.02,0.24c-0.74,0.86-1.32,1.49-1.94,2.09
		c0.41,0.29,0.82,0.55,1.2,0.86c1.08-1.15,2.09-2.38,2.98-3.53l0.24-0.02l2.52,1.7L147.99,214.78z M140.1,222.99
		c-2.04,1.39-4.01,2.3-6.07,2.9c-0.12,0.02-0.22,0.05-0.31,0.05c-0.19,0-0.31-0.07-0.46-0.24l-1.63-2.11
		c2.54-0.74,4.39-1.39,6.07-2.59h0.24l2.16,1.78V222.99z M137.31,206.38v0.96h3.96v-0.96H137.31z M137.31,209.38v0.91h3.96v-0.91
		H137.31z M144.54,207.34h4.06v-0.96h-4.06V207.34z M144.54,210.29h4.06v-0.91h-4.06V210.29z M152.07,226.04l-0.24,0.07
		c-1.9-1.34-4.1-2.57-6.1-3.31l-0.05-0.22l1.82-1.9l0.26-0.05c1.87,0.6,4.15,1.78,6.02,2.93l0.05,0.24L152.07,226.04z"/>
	<path d="M155.55,210.29l-0.17-0.14v-2.52l0.14-0.14l2.78,0.07h4.39l2.86-0.07l0.14,0.12v2.57l-0.14,0.12l-2.86-0.07h-4.39
		L155.55,210.29z M159.56,224.69v1.25h-3.1l0.12-4.32v-1.13l-0.07-2.4l0.14-0.17l2.76,0.07h2.28l2.98-0.07l0.17,0.17l-0.07,2.4v1.2
		l0.12,3.96h-3.19v-0.96H159.56z M157.02,206.72l-0.17-0.14v-2.35l0.14-0.14l2.5,0.07h2.35l2.5-0.07l0.14,0.12v2.4l-0.14,0.12
		l-2.5-0.07h-2.35L157.02,206.72z M157.02,213.7l-0.17-0.14v-2.35l0.14-0.14l2.5,0.07h2.35l2.5-0.07l0.14,0.12v2.4l-0.14,0.12
		l-2.5-0.07h-2.35L157.02,213.7z M157.02,217.11l-0.17-0.14v-2.35l0.14-0.14l2.5,0.07h2.35l2.5-0.07l0.14,0.12v2.4l-0.14,0.12
		l-2.5-0.07h-2.35L157.02,217.11z M161.7,220.49h-2.14v1.71h2.14V220.49z M174.75,210.8l3.58-0.07l0.14,0.12v2.88l-0.14,0.12
		l-3.58-0.07h-1.08v4.08l0.12,8.4h-3.65l0.12-8.4v-4.08h-1.18l-3.55,0.07l-0.17-0.14v-2.83l0.14-0.14l3.58,0.07h1.18v-7.3l0.17-0.17
		h3.07l0.17,0.17v7.3H174.75z"/>
	<path d="M187.93,218.14c0.96,0.91,1.87,1.63,2.86,2.23c1.08-0.7,1.94-1.46,2.69-2.45h-5.4l-3.89,0.05l-0.14-0.19v-2.66l0.14-0.12
		l3.89,0.07h7.13l1.46-0.07l1.27,1.15c0.17,0.14,0.24,0.24,0.24,0.36c0,0.1-0.05,0.22-0.14,0.38c-1.03,2.02-2.45,3.62-4.1,4.9
		c2.11,0.67,4.63,0.98,8.06,1.08l-1.78,2.9c-0.14,0.24-0.38,0.29-0.74,0.26c-3.72-0.29-6.41-1.01-8.83-2.18
		c-2.59,1.27-5.52,2.02-8.59,2.38c-0.29,0.02-0.55,0.02-0.74-0.29l-1.58-2.45c3.22-0.29,5.81-0.82,7.85-1.56
		c-0.79-0.62-1.56-1.32-2.4-2.18v-0.26l2.5-1.34H187.93z M199.23,207.22l0.07,0.22c-0.6,1.18-1.3,2.28-1.94,3.22h0.14l3.98-0.07
		l0.17,0.17l-0.07,1.82v0.7l0.12,2.81h-3.48v-2.54h-14.71v2.54h-3.43l0.12-2.81v-0.7l-0.07-1.82l0.17-0.17l3.86,0.07
		c-0.26-0.67-0.65-1.44-1.15-2.16l0.07-0.22l1.82-0.77c-0.86,0.05-1.75,0.1-2.69,0.14c-0.31,0.02-0.48-0.07-0.55-0.19l-1.42-2.57
		c7.68-0.22,13.27-0.86,17.86-1.63l0.24,0.05c0.89,0.7,1.68,1.34,2.59,2.38l-0.07,0.24c-1.51,0.19-2.9,0.36-4.2,0.5L199.23,207.22z
		 M190.74,207.05c-1.61,0.14-3.22,0.29-4.82,0.38c0.6,0.67,1.08,1.42,1.42,2.14l-0.07,0.24l-1.87,0.84h4.68l-0.14-0.05
		c-0.36-1.08-0.65-1.7-1.25-2.64l0.07-0.19L190.74,207.05z M193.83,210.65c0.77-1.32,1.42-2.69,1.92-4.13
		c-1.37,0.17-2.76,0.31-4.15,0.46c0.72,0.89,1.01,1.3,1.44,2.4l-0.07,0.22l-2.64,1.06H193.83z"/>
	<path d="M203.62,210.32l-0.17-0.14v-2.52l0.14-0.14l2.69,0.07H209l2.78-0.07l0.14,0.12v2.57l-0.14,0.12l-2.78-0.07h-2.71
		L203.62,210.32z M206.98,224.72v1.32h-2.78l0.12-4.32v-1.2l-0.07-2.4l0.14-0.17l2.69,0.07h1.1l2.9-0.07l0.14,0.17l-0.05,2.4v1.27
		l0.05,3.96h-2.81v-1.03H206.98z M204.73,206.74l-0.14-0.14v-2.35l0.12-0.14l2.42,0.07h1.22l2.42-0.07l0.14,0.12v2.4l-0.14,0.12
		l-2.42-0.07h-1.22L204.73,206.74z M204.73,213.72l-0.14-0.14v-2.35l0.12-0.14l2.42,0.07h1.22l2.42-0.07l0.14,0.12v2.4l-0.14,0.12
		l-2.42-0.07h-1.22L204.73,213.72z M204.73,217.13l-0.14-0.14v-2.35l0.12-0.14l2.42,0.07h1.22l2.42-0.07l0.14,0.12v2.4l-0.14,0.12
		l-2.42-0.07h-1.22L204.73,217.13z M208.42,220.42h-1.44v1.9h1.44V220.42z M220.35,214.25h1.22l3.07-0.07l0.17,0.17l-0.07,2.71v2.62
		l0.02,0.46l1.63-0.05l0.14,0.12v2.14l-0.14,0.12l-1.56-0.05l0.02,0.94c0,2.35-0.91,2.9-3.7,2.9c-0.36,0-0.41-0.05-0.5-0.26
		l-0.94-2.52c0.74,0,1.13,0,1.61-0.05c0.31-0.02,0.41-0.12,0.41-0.5v-0.53h-5.88v3.89h-3.02l0.07-3.84l-1.22,0.02l-0.17-0.14v-2.09
		l0.14-0.14l1.3,0.02v-3.05l-0.07-2.71l0.17-0.17l3.07,0.07h1.08v-0.86h-2.26l-3.14,0.07l-0.17-0.14v-1.99l0.14-0.14l3.17,0.07
		v-0.86l-1.85,0.05l-0.17-0.14v-1.85l0.14-0.14l1.87,0.05v-0.89l-2.57,0.05l-0.17-0.14v-1.97l0.14-0.14l2.59,0.05v-1.87l0.17-0.17
		h2.62l0.17,0.17v1.9h1.8v-1.9l0.17-0.17h2.69l0.17,0.17v1.9l2.88-0.07l0.14,0.12v2.02l-0.14,0.12l-2.88-0.07v0.91l2.16-0.05
		l0.14,0.12v1.9l-0.14,0.12l-2.16-0.05v0.86h0.38l3.17-0.07l0.14,0.12v2.04l-0.14,0.12l-3.17-0.07h-2.76V214.25z M217.4,216.46
		h-1.54v0.89h1.54V216.46z M217.4,219.22h-1.54v0.94h1.54V219.22z M219.7,207.44h-1.8v0.94h1.8V207.44z M219.7,210.36h-1.8v0.89h1.8
		V210.36z M221.74,217.35v-0.89h-1.56v0.89H221.74z M221.74,220.16v-0.94h-1.56v0.94H221.74z"/>
	<path d="M242.58,207.94c1.06-1.18,2.02-2.47,2.88-3.84l0.24-0.05l2.78,1.46l0.05,0.26c-1.22,1.68-2.54,3.26-4.01,4.73h1.8
		l3.67-0.07l0.17,0.17v2.59l-0.17,0.17l-3.67-0.07h-4.68c-0.77,0.58-1.54,1.13-2.33,1.66h4.22l3.31-0.07l0.17,0.17l-0.07,2.78v2.95
		l0.12,5.33h-3.48v-0.94h-6.96v1.08h-3.38l0.12-5.57v-1.97c-1.15,0.6-2.3,1.18-3.46,1.7c-0.14,0.07-0.29,0.12-0.38,0.12
		c-0.14,0-0.29-0.07-0.43-0.24l-1.9-2.23c3.29-1.34,6.5-2.9,9.41-4.78h-5.33l-3.41,0.07l-0.19-0.17v-2.64l0.24-0.12l3.36,0.07h4.1
		v-1.78h-2.11l-3.17,0.07l-0.19-0.17v-2.62l0.24-0.12l3.12,0.07h2.11v-2.4l0.17-0.22h3.07l0.19,0.19v2.42h0.17l3.43-0.07l0.17,0.17
		V207.94z M243.58,217.54h-6.96v1.2h6.96V217.54z M243.58,221.29h-6.96v1.27h6.96V221.29z M238.98,208.73h-0.17v1.78h1.2
		c0.62-0.55,1.22-1.13,1.8-1.73L238.98,208.73z"/>
	<path d="M272.79,211.88c-0.31,4.3-1.03,6.38-2.09,8.33l-0.07,0.12c1.03,1.1,2.33,2.11,3.94,3.12l-2.33,2.5
		c-0.1,0.1-0.19,0.17-0.31,0.17c-0.12,0-0.24-0.07-0.41-0.19c-1.13-0.94-2.06-1.85-2.88-2.78c-1.06,1.15-2.28,2.11-3.77,3.02
		c-0.14,0.07-0.22,0.12-0.29,0.12c-0.1,0-0.14-0.05-0.26-0.14l-1.87-1.82l-0.48,0.77l-0.24,0.12c-0.7-0.48-1.37-0.91-2.04-1.3
		c-1.73,1.44-3.86,1.99-5.95,2.26c-0.24,0.02-0.53,0.05-0.62-0.12l-1.51-2.35c2.33-0.12,4.03-0.41,5.28-1.1
		c-0.46-0.17-0.91-0.34-1.39-0.48c-0.12,0.19-0.24,0.36-0.36,0.53l-0.24,0.07l-2.4-0.91l-0.05-0.24c0.58-0.79,1.1-1.58,1.58-2.38
		l-2.21,0.05l-0.17-0.12v-2.3l0.14-0.17l2.69,0.07h0.82c0.22-0.46,0.41-0.94,0.6-1.42l0.22-0.12l2.76,0.38l0.1,0.19
		c-0.14,0.31-0.29,0.62-0.43,0.96h3.46l2.38-0.07l0.19,0.14v2.3l-0.12,0.14l-1.82-0.05c-0.26,0.86-0.62,1.66-1.03,2.45
		c0.55,0.26,1.13,0.55,1.75,0.86l0.1,0.22l-0.53,0.86c1.44-0.84,2.81-1.87,3.86-3.14c-0.89-1.63-1.44-3.41-1.78-5.26
		c-0.1,0.14-0.19,0.26-0.29,0.41c-0.12,0.17-0.26,0.26-0.41,0.26c-0.1,0-0.22-0.05-0.31-0.17l-1.13-1.27l-0.77,0.84l-0.24,0.02
		c-0.91-1.01-1.51-1.58-2.33-2.21l0.07,2.02h-3.22l0.17-2.11c-0.91,1.08-2.06,2.04-3.22,2.74c-0.12,0.07-0.19,0.1-0.26,0.1
		c-0.14,0-0.24-0.07-0.34-0.22l-1.56-1.97c1.73-0.82,3.14-1.85,4.27-3.05h-0.26l-3.34,0.07l-0.17-0.17v-2.3l0.17-0.17l1.61,0.02
		c-0.43-0.84-0.79-1.49-1.34-2.18l0.02-0.24l2.21-0.96h0.24c0.7,0.7,1.22,1.44,1.66,2.23l-0.12,0.24l-1.94,0.94l1.01,0.02h1.32
		v-4.13l0.17-0.17h2.64l0.17,0.17v4.13h0.94l1.13-0.02l-1.78-0.94c0.48-0.77,1.03-1.82,1.39-2.66l0.24-0.07l2.5,1.15l0.1,0.22
		c-0.65,1.13-1.13,1.78-1.56,2.28l1.32-0.02l0.17,0.17v2.3l-0.17,0.17l-3.34-0.07h-0.94v1.03l0.02,0.36l0.96-0.96l0.29,0.02
		c0.74,0.43,1.44,0.89,2.18,1.44c1.68-2.64,2.86-5.54,3.62-9.07l0.22-0.1l2.95,0.96l0.05,0.26c-0.46,1.66-0.94,3.12-1.46,4.44h2.62
		l3.24-0.07l0.19,0.17v2.69l-0.19,0.17L272.79,211.88z M257.29,219.15c-0.14,0.26-0.31,0.53-0.46,0.82c0.7,0.17,1.39,0.36,2.06,0.58
		c0.26-0.43,0.46-0.91,0.65-1.39H257.29z M267.27,211.83c0.19,1.9,0.58,3.79,1.37,5.52c0.62-1.78,0.82-3.65,0.94-5.52H267.27z"/>
	<path d="M143.79,268.88v3h-11.67v-3h3.74v-11.64l-4.13,1.56v-3.31l6.17-2.3h2.16v15.7H143.79z"/>
	<path d="M158.5,262.49c0,6.55-1.9,9.62-6.58,9.62c-4.7,0-6.62-3.07-6.62-9.62c0-6.5,1.92-9.58,6.62-9.58
		C156.61,252.92,158.5,255.99,158.5,262.49z M153.94,262.49c0-5.23-0.46-6.79-2.02-6.79c-1.63,0-2.11,1.56-2.11,6.79
		c0,5.26,0.48,6.77,2.11,6.77C153.49,269.26,153.94,267.75,153.94,262.49z"/>
	<path d="M173.62,262.49c0,6.55-1.9,9.62-6.58,9.62c-4.7,0-6.62-3.07-6.62-9.62c0-6.5,1.92-9.58,6.62-9.58
		C171.73,252.92,173.62,255.99,173.62,262.49z M169.06,262.49c0-5.23-0.46-6.79-2.02-6.79c-1.63,0-2.11,1.56-2.11,6.79
		c0,5.26,0.48,6.77,2.11,6.77C168.61,269.26,169.06,267.75,169.06,262.49z"/>
	<path d="M188.74,262.49c0,6.55-1.9,9.62-6.58,9.62c-4.7,0-6.62-3.07-6.62-9.62c0-6.5,1.92-9.58,6.62-9.58
		C186.85,252.92,188.74,255.99,188.74,262.49z M184.18,262.49c0-5.23-0.46-6.79-2.02-6.79c-1.63,0-2.11,1.56-2.11,6.79
		c0,5.26,0.48,6.77,2.11,6.77C183.73,269.26,184.18,267.75,184.18,262.49z"/>
	<path d="M209.46,252.53c-0.02,2.59-0.1,4.68-0.31,6.62c1.87,5.93,5.23,9.02,10.3,11.67l-2.28,2.98c-0.07,0.1-0.17,0.14-0.26,0.14
		s-0.22-0.05-0.36-0.12c-3.98-2.09-7.03-5.4-8.69-9.24c-1.46,4.06-4.66,7.37-8.83,9.41c-0.12,0.05-0.22,0.1-0.31,0.1
		c-0.07,0-0.14-0.05-0.24-0.12l-2.4-2.69c4.54-2.11,7.61-5.04,8.71-9.31c0.55-2.14,0.89-5.09,0.79-9.55l0.17-0.17l3.55,0.12
		L209.46,252.53z"/>
	<path d="M222.94,252.96l0.17-0.17l3.07-0.07l0.17,0.14l0.34,13.73c1.94-0.86,3.74-1.73,5.62-2.69l0.36,2.62
		c0.05,0.29-0.07,0.38-0.31,0.53c-3.26,1.8-6.31,3.24-10.51,5.04l-0.24-0.02l-1.56-2.62l0.12-0.24c1.13-0.41,2.16-0.79,3.17-1.2
		L222.94,252.96z M240.68,252.63c0.07,8.62-0.53,12.17-2.02,14.81c1.56,1.37,3.07,2.98,4.06,4.39l-0.07,0.24l-2.38,1.99l-0.24-0.05
		c-0.77-1.15-1.97-2.66-3.24-3.98c-1.92,2.16-4.32,3.5-7.39,4.3c-0.26,0.07-0.48,0-0.65-0.17l-2.28-2.23
		c4.03-1.06,7.15-2.66,8.88-5.47c1.44-2.33,1.97-5.11,1.82-14.06l0.17-0.17l3.17,0.24L240.68,252.63z M230.24,253.95l0.24-0.05
		c1.68,1.06,3.34,2.52,4.44,3.96l-0.05,0.24l-2.16,2.11l-0.24-0.05c-1.01-1.49-2.62-3.07-4.2-4.2l0.05-0.26L230.24,253.95z"/>
	<path d="M260.86,258.68l3.29-0.07l0.14,0.12v3.02l-0.14,0.12l-3.29-0.07h-4.01V270h5.88l3.77-0.07l0.14,0.12v3.02l-0.17,0.17
		l-3.75-0.07h-14.04l-3.74,0.07l-0.17-0.14v-3.05l0.14-0.12l3.77,0.07h4.44v-18.1l0.17-0.19h3.38l0.17,0.17v6.79H260.86z"/>
</g>
<rect x="53.5" y="197.5" class="st0" width="193" height="97"/>
<g>
	<path d="M346.36,204.21v2.64c-3.19,4.01-5.59,9.53-6.07,16.08h-4.46c0.41-5.62,3.31-11.45,6.12-14.88h-8.71v-3.84H346.36z"/>
	<path d="M360.3,223.39v1.85h-3.62l0.12-10.54v-6.6l-0.07-4.1l0.19-0.14l4.06,0.07h8.67l4.03-0.07l0.19,0.14l-0.07,4.1v6.24
		l0.12,10.9h-3.72v-1.85H360.3z M370.19,206.95h-9.89v5.09h9.89V206.95z M370.19,215.04h-9.89v5.28h9.89V215.04z"/>
	<path d="M388.55,221.25c5.16-0.86,7.49-3.34,7.49-6.22c0-3.65-2.02-5.95-4.46-6.46c-0.48,4.54-2.04,8.76-3.7,11.18
		c-1.3,1.9-2.64,2.59-4.51,2.59c-1.44,0-2.47-0.7-3.38-2.14c-0.7-1.08-1.18-2.4-1.18-4.34c0-5.81,4.34-10.51,10.94-10.51
		c6.55,0,10.06,4.39,10.06,9.72c0,4.37-3.07,7.68-8.16,8.88c-0.34,0.02-0.5,0.02-0.77-0.24L388.55,221.25z M382.12,215.88
		c0,0.79,0.14,1.37,0.41,1.82c0.26,0.48,0.6,0.79,0.98,0.79c0.55,0,1.25-0.55,1.9-1.85c1.34-2.69,2.02-5.23,2.38-8.16
		C384.28,209.09,382.12,212.18,382.12,215.88z"/>
	<path d="M421.33,210.5l3.19-0.07l0.14,0.12v2.62l-0.14,0.12l-3.19-0.07v3.29l2.98-0.05l0.14,0.12v2.59l-0.14,0.14l-3.58-0.1h-14.47
		l-3.55,0.1l-0.17-0.17v-2.54l0.14-0.14l2.74,0.05v-3.29l-3.19,0.07l-0.17-0.17v-2.52l0.14-0.17l3.22,0.07v-1.85
		c-0.46,0.43-0.89,0.82-1.32,1.15c-0.12,0.12-0.22,0.17-0.31,0.17c-0.12,0-0.22-0.12-0.36-0.26l-1.75-1.94
		c2.06-1.51,3.74-3.31,4.92-5.42l0.22-0.05l2.69,0.96l0.07,0.24c-0.26,0.46-0.55,0.91-0.89,1.37h11.69l3.58-0.07l0.14,0.14v2.57
		l-0.14,0.12l-2.62-0.05V210.5z M402.51,223.8l-0.1-0.22c1.01-1.3,1.66-2.59,2.26-4.03l0.19-0.07l2.62,0.94l0.02,0.26
		c-0.48,1.58-1.3,3.26-2.21,4.54l-0.26,0.05L402.51,223.8z M409.81,225.07l-0.24-0.1c-0.24-1.51-0.7-3.12-1.18-4.34l0.14-0.19
		l2.62-0.65l0.24,0.14c0.65,1.25,1.18,2.98,1.42,4.2l-0.12,0.22L409.81,225.07z M408.51,207.55v2.95h1.3v-2.95H408.51z
		 M409.81,216.53v-3.31h-1.3v3.31H409.81z M412.74,207.55v2.95h1.22v-2.95H412.74z M413.96,216.53v-3.31h-1.22v3.31H413.96z
		 M415.64,225.02l-0.24-0.07c-0.48-1.49-1.15-2.95-1.8-4.08l0.1-0.22l2.5-1.03l0.26,0.1c0.79,1.13,1.58,2.74,1.99,3.91l-0.07,0.24
		L415.64,225.02z M416.89,207.55v2.95h1.25v-2.95H416.89z M418.14,216.53v-3.31h-1.25v3.31H418.14z M422.03,225.17l-0.26-0.05
		c-0.74-1.42-1.7-2.83-2.74-4.01l0.02-0.22l2.35-1.46l0.24,0.1c1.25,1.25,2.18,2.42,3,3.79l-0.05,0.22L422.03,225.17z"/>
	<path d="M425.7,212.28c3.55-0.5,6.29-1.1,8.57-1.99c-0.72-0.53-1.39-1.1-2.02-1.73c-0.96,0.79-1.99,1.51-3.22,2.18
		c-0.1,0.05-0.17,0.07-0.24,0.07c-0.12,0-0.22-0.07-0.36-0.19l-2.09-2.06c3.31-1.63,5.86-3.89,7.58-6.38l0.24-0.07l2.81,0.82
		l0.1,0.22c-0.26,0.38-0.53,0.74-0.79,1.08h5.14l1.92-0.14l1.44,1.22c0.1,0.07,0.14,0.17,0.14,0.29c0,0.1-0.07,0.24-0.17,0.36
		c-1.27,1.73-2.62,3.07-4.06,4.18c2.28,0.72,4.92,1.13,8.26,1.37l-1.66,3.02c-0.14,0.24-0.31,0.29-0.58,0.24
		c-3.82-0.55-6.79-1.44-9.26-2.59c-2.81,1.44-5.88,2.33-9.31,2.88c-0.26,0.05-0.38,0.07-0.58-0.19L425.7,212.28z M435.47,220.61
		c-2.02,1.7-4.44,3.22-7.13,4.3c-0.12,0.05-0.22,0.07-0.29,0.07c-0.12,0-0.19-0.07-0.29-0.19l-2.02-2.66c3-0.98,5.5-2.09,7.83-3.79
		h-2.33l-4.22,0.07l-0.17-0.17v-2.52l0.17-0.17l4.22,0.07h4.22v-1.97l0.17-0.17h3.12l0.17,0.17v1.97h4.61l4.22-0.07l0.17,0.17v2.52
		l-0.17,0.17l-4.22-0.07h-2.78c2.33,1.51,5.09,2.69,8.02,3.55l-2.09,2.81c-0.07,0.12-0.17,0.19-0.34,0.19
		c-0.07,0-0.17-0.02-0.29-0.07c-2.98-1.32-5.18-2.64-7.13-4.42l0.12,4.8h-3.7L435.47,220.61z M434.7,206.78
		c0.84,0.72,1.75,1.37,2.74,1.92c0.86-0.55,1.68-1.22,2.47-1.92H434.7z"/>
	<path d="M455.43,225.34h-3.36l0.12-7.42v-2.66c-0.31,0.72-0.55,1.15-0.91,1.75c-0.1,0.17-0.22,0.24-0.31,0.24
		c-0.12,0-0.22-0.1-0.26-0.26l-0.89-3.34c1.78-3.22,3.12-6.96,3.84-11.19l0.22-0.12l3,0.65l0.12,0.22c-0.5,2.02-1.01,3.79-1.56,5.38
		V225.34z M460.04,210.57c-0.41,0.98-0.84,1.9-1.37,2.74c-0.12,0.22-0.26,0.29-0.43,0.29c-0.1,0-0.19-0.02-0.29-0.07l-2.5-1.08
		c1.56-2.54,2.5-5.33,3.07-8.47l0.19-0.07l2.9,0.91l0.12,0.22c-0.24,0.91-0.46,1.78-0.72,2.59h2.04v-5.06l0.17-0.17h3.1l0.17,0.17
		v5.06h1.78l3.24-0.07l0.19,0.17v2.76l-0.19,0.17l-3.24-0.07h-1.78v3.94h2.93l2.93-0.07l0.14,0.12v2.83l-0.17,0.17l-2.9-0.07h-2.93
		l0.12,7.82h-3.67l0.14-7.82h-3.7l-3.14,0.07l-0.17-0.14v-2.86l0.14-0.12l3.17,0.07h3.7v-3.94H460.04z"/>
	<path d="M345.78,262.34h3.84l3.41-0.07l0.14,0.12v2.69l-0.14,0.12l-3.41-0.07h-3.84v4.39h2.86l-1.75-0.72
		c0.82-1.39,1.18-2.23,1.68-3.46l0.22-0.12l2.98,1.08l0.07,0.26c-0.65,1.15-1.32,2.16-1.94,2.95h1.85l3.17-0.07l0.14,0.12v2.71
		l-0.14,0.12l-3.17-0.07h-15.03l-3.14,0.07l-0.17-0.14v-2.66l0.14-0.14l3.17,0.07h1.54c-0.31-0.84-0.79-1.99-1.39-2.98l0.07-0.22
		l2.52-0.94l0.26,0.1c0.6,0.82,1.18,1.94,1.61,2.9l-0.07,0.24l-2.23,0.89h3.36v-4.39h-3.67l-3.38,0.07l-0.17-0.14v-2.64l0.14-0.14
		l3.41,0.07h3.67v-1.68h-0.77l-2.67,0.07l-0.17-0.14v-1.1c-1.01,0.7-2.06,1.37-3.19,1.99c-0.19,0.1-0.34,0.14-0.46,0.14
		c-0.14,0-0.26-0.07-0.41-0.22l-2.16-2.16c4.51-2.18,7.73-4.87,10.03-8.9l0.26-0.07l3.41,0.91l0.07,0.24
		c-0.12,0.19-0.24,0.38-0.38,0.58c2.64,2.74,5.86,5.02,10.08,6.41l-2.09,2.42c-0.26,0.31-0.48,0.46-0.7,0.46
		c-0.12,0-0.24-0.05-0.38-0.12c-1.1-0.6-2.18-1.22-3.26-1.9v1.34l-0.14,0.12l-2.69-0.07h-0.98V262.34z M347.6,257.88
		c-1.3-0.98-2.45-2.09-3.53-3.31c-0.96,1.2-2.06,2.33-3.24,3.31l0.77,0.02h5.16L347.6,257.88z"/>
	<path d="M378.73,264.77l0.07,3.48l-0.22,0.17l-2.33-0.07h-0.31c1.32,0.6,2.47,1.34,3.79,2.33l0.05,0.24l-1.87,2.26l-0.29,0.07
		c-1.42-1.32-2.69-2.26-4.03-3.05c-1.58,1.39-3.14,2.47-4.51,3.1c-0.14,0.07-0.26,0.1-0.36,0.1c-0.14,0-0.26-0.07-0.41-0.24
		l-1.27-1.58l0.02,1.18H364v-1.2h-2.86v1.39h-3l0.1-4.66v-0.53l-0.02-1.03c-0.22,0.02-0.31-0.02-0.43-0.19l-1.27-1.8
		c1.58-0.58,3.02-1.3,4.22-2.18c-0.43-0.22-0.84-0.43-1.27-0.65c-0.24,0.19-0.46,0.41-0.7,0.6c-0.17,0.14-0.29,0.19-0.41,0.19
		s-0.22-0.07-0.36-0.24l-1.39-1.63c1.2-0.94,2.21-1.99,2.95-3.19h-2.81l0.12-2.52v-0.6l-0.07-1.75l0.19-0.17l2.66,0.07h1.27v-2.14
		l0.17-0.17h2.93l0.17,0.17v2.14h1.08l2.66-0.07v-1.34l0.14-0.14l3.17,0.07h5.02l3.17-0.07l0.14,0.12v2.57l-0.14,0.12l-3.17-0.07
		h-0.6c-0.26,0.43-0.55,0.86-0.84,1.3h0.72l3.07-0.07l0.19,0.19l-0.07,2.69V264.77z M365.24,255.19h-5.52v2.16
		c0.31-0.55,0.58-1.1,0.79-1.7l0.19-0.17l2.42,0.62l0.14,0.19c-0.12,0.26-0.22,0.5-0.34,0.74h1.49l0.82-0.05V255.19z M361.62,259.34
		c-0.17,0.24-0.36,0.48-0.53,0.72c0.53,0.22,1.06,0.46,1.58,0.72c0.38-0.46,0.72-0.94,0.98-1.44H361.62z M364,267.55h-2.86v1.56H364
		V267.55z M363.9,265.25l1.15-0.02c-0.6-0.43-1.22-0.84-1.85-1.25c-0.58,0.48-1.18,0.89-1.8,1.27H363.9z M367.02,257.93
		c0.14,0.12,0.22,0.24,0.22,0.43c0,0.17-0.07,0.38-0.22,0.67c-0.55,1.13-1.18,2.14-1.87,2.98c1.2,0.65,2.3,1.32,3.29,1.97
		l-0.07,0.24l-1.34,1.66l-0.05,1.87v0.46l0.05,2.81c0.86-0.41,1.7-0.89,2.47-1.46c0.48-0.36,0.96-0.77,1.42-1.18l-1.94,0.05
		l-0.17-0.17l0.07-3.36v-7.08l-0.07-2.62l0.17-0.14l2.47,0.05c0.17-0.41,0.36-0.84,0.53-1.27h-0.72l-3.02,0.07l-0.02,0.58v0.62
		l0.12,2.21h-2.02L367.02,257.93z M371.72,268.34l1.94,1.51v0.02l1.58-1.54H371.72z M375.61,258.84v-1.22h-3.77v1.22H375.61z
		 M371.84,262.32h3.77v-1.22h-3.77V262.32z M371.84,265.85h3.77v-1.27h-3.77V265.85z"/>
	<path d="M402.04,257.33c0.19,0.14,0.29,0.26,0.29,0.48c0,0.1,0,0.19-0.05,0.34c-0.6,2.28-1.44,4.18-2.54,5.81
		c0.96,0.84,1.9,1.7,2.83,2.59v0.26l-2.02,2.3l-0.26-0.02c-0.84-0.94-1.73-1.85-2.62-2.71c-1.18,1.08-2.52,2.04-4.06,2.88
		c-0.19,0.1-0.36,0.17-0.48,0.17c-0.17,0-0.31-0.1-0.5-0.29l-1.73-1.85c1.8-0.89,3.31-1.85,4.54-2.98c-1.03-0.91-2.09-1.75-3.1-2.52
		v-0.24l1.78-1.7l0.24-0.05c0.98,0.65,1.97,1.39,2.98,2.18c0.53-0.84,0.96-1.8,1.3-2.86h-6.29c-0.07,4.08-0.58,6.96-2.52,9.72
		c-0.1,0.12-0.19,0.19-0.29,0.19s-0.17-0.05-0.29-0.12l-2.18-1.56v0.77c0.86,1.3,2.57,1.63,4.85,1.73c2.98,0.12,7.92-0.1,12.05-0.41
		l-1.34,3.12c-0.1,0.24-0.17,0.24-0.43,0.24c-1.99,0.07-4.01,0.12-5.86,0.12c-2.11,0-4.06-0.05-5.57-0.17
		c-2.09-0.14-4.03-0.62-5.45-2.4c-0.91,0.74-1.85,1.63-2.88,2.54l-0.22-0.1l-1.7-2.81l0.07-0.22c1.22-0.77,2.16-1.32,3.24-1.92
		v-5.11h-0.53l-2.18,0.07l-0.17-0.14v-2.74l0.14-0.14l2.21,0.07h0.53l3.14-0.07l0.17,0.17l-0.07,3.6v3.5
		c1.46-2.4,2.02-4.73,2.02-8.16v-4.03l-0.07-3.22l0.17-0.17l3.72,0.07h6.26l3.48-0.07l0.19,0.14v2.74l-0.19,0.14l-3.48-0.07h-6.79
		v1.94h6.14l2.16-0.12L402.04,257.33z M385.16,256.44h-0.34c-1.03-1.32-1.99-2.3-3.46-3.41l0.02-0.19l2.09-1.75l0.24-0.05
		c1.39,0.91,2.5,1.92,3.72,3.19l-0.02,0.26L385.16,256.44z"/>
	<path d="M417.78,262.34h3.84l3.41-0.07l0.14,0.12v2.69l-0.14,0.12l-3.41-0.07h-3.84v4.39h2.86l-1.75-0.72
		c0.82-1.39,1.18-2.23,1.68-3.46l0.22-0.12l2.98,1.08l0.07,0.26c-0.65,1.15-1.32,2.16-1.94,2.95h1.85l3.17-0.07l0.14,0.12v2.71
		l-0.14,0.12l-3.17-0.07h-15.03l-3.14,0.07l-0.17-0.14v-2.66l0.14-0.14l3.17,0.07h1.54c-0.31-0.84-0.79-1.99-1.39-2.98l0.07-0.22
		l2.52-0.94l0.26,0.1c0.6,0.82,1.18,1.94,1.61,2.9l-0.07,0.24l-2.23,0.89h3.36v-4.39h-3.67l-3.38,0.07l-0.17-0.14v-2.64l0.14-0.14
		l3.41,0.07h3.67v-1.68h-0.77l-2.67,0.07l-0.17-0.14v-1.1c-1.01,0.7-2.06,1.37-3.19,1.99c-0.19,0.1-0.34,0.14-0.46,0.14
		c-0.14,0-0.26-0.07-0.41-0.22l-2.16-2.16c4.51-2.18,7.73-4.87,10.03-8.9l0.26-0.07l3.41,0.91l0.07,0.24
		c-0.12,0.19-0.24,0.38-0.38,0.58c2.64,2.74,5.86,5.02,10.08,6.41l-2.09,2.42c-0.26,0.31-0.48,0.46-0.7,0.46
		c-0.12,0-0.24-0.05-0.38-0.12c-1.1-0.6-2.18-1.22-3.26-1.9v1.34l-0.14,0.12l-2.69-0.07h-0.98V262.34z M419.6,257.88
		c-1.3-0.98-2.45-2.09-3.53-3.31c-0.96,1.2-2.06,2.33-3.24,3.31l0.77,0.02h5.16L419.6,257.88z"/>
	<path d="M441.4,267.41c-1.25,1.7-3,3.34-4.61,4.49c-0.14,0.1-0.26,0.14-0.38,0.14c-0.17,0-0.31-0.1-0.48-0.29l-1.56-1.75v3.34H431
		l0.12-7.42v-2.66c-0.31,0.72-0.55,1.15-0.91,1.75c-0.1,0.17-0.22,0.24-0.31,0.24c-0.12,0-0.22-0.1-0.26-0.26l-0.89-3.31
		c1.82-3.24,3.05-6.99,3.72-11.21l0.22-0.12l3,0.65l0.12,0.22c-0.48,1.99-0.94,3.72-1.44,5.28v13.06c2.14-1.34,4.06-3.05,5.71-4.94
		h-1.78l-3.29,0.07l-0.17-0.14v-2.62l0.14-0.14l3.31,0.07h3v-2.06h-2.04l-2.5,0.07l-0.17-0.19l0.12-2.54v-3.07l-0.07-2.28l0.17-0.17
		l2.3,0.07h7.9l2.3-0.07l0.17,0.17l-0.07,2.28v3.14l0.07,2.45l-0.19,0.22l-2.45-0.07h-2.23v2.06h3.22l3.43-0.07l0.14,0.12v2.66
		l-0.14,0.12l-3.43-0.07h-1.78c1.63,1.75,3.7,3.36,5.76,4.56l-1.85,2.47c-0.12,0.17-0.26,0.29-0.43,0.29
		c-0.12,0-0.24-0.05-0.36-0.14c-1.66-1.25-3.46-3.17-4.66-4.94l0.26,6.5h-3.62L441.4,267.41z M446.03,257.06v-2.74H440v2.74H446.03z
		"/>
	<path d="M452.84,257.3l-0.17-0.14v-2.52l0.14-0.14l2.69,0.07h3.29l2.78-0.07l0.12,0.12v2.57l-0.12,0.12l-2.78-0.07h-3.29
		L452.84,257.3z M456.35,271.61v1.44h-2.86l0.12-4.32v-1.3l-0.07-2.4l0.14-0.17l2.66,0.07h1.78l2.88-0.07l0.17,0.17l-0.07,2.4v1.37
		l0.12,3.96h-2.95v-1.15H456.35z M454.02,253.75l-0.17-0.14v-2.35l0.14-0.14l2.42,0.07h1.85l2.42-0.07l0.14,0.12v2.4l-0.14,0.12
		l-2.42-0.07h-1.85L454.02,253.75z M454.02,260.69l-0.17-0.14v-2.35l0.14-0.14l2.42,0.07h1.85l2.42-0.07l0.14,0.12v2.4l-0.14,0.12
		l-2.42-0.07h-1.85L454.02,260.69z M454.02,264.07l-0.17-0.14v-2.35l0.14-0.14l2.42,0.07h1.85l2.42-0.07l0.14,0.12v2.4l-0.14,0.12
		l-2.42-0.07h-1.85L454.02,264.07z M458.27,267.41h-1.92v1.73h1.92V267.41z M463.12,258.79l0.17-0.19h2.83l0.17,0.17v10.71h1.44
		v-14.38h-1.66l-3.79,0.07l-0.14-0.17v-2.83l0.19-0.12l3.74,0.07h5.62l3.79-0.07l0.17,0.17V255l-0.17,0.17l-3.79-0.07h-0.67v4.85
		h1.13l2.4-0.07l0.17,0.17v2.78l-0.17,0.17l-2.4-0.07h-1.13v6.55H472l3.79-0.07l0.17,0.17v2.78l-0.17,0.17l-3.79-0.07h-6.41
		l-3.79,0.07l-0.14-0.17v-2.83l0.19-0.12l1.27,0.02V258.79z"/>
</g>
<rect x="119" y="189.5" class="st1" width="166.5" height="96.5"/>
<rect x="321.22" y="189.06" class="st1" width="166.5" height="96.5"/>
</svg>
