<svg height="512pt" viewBox="0 -1 512 511" width="512pt" xmlns="http://www.w3.org/2000/svg"><path d="m349.183594 480.492188-93.1875 14.59375-93.1875-14.59375 28.558594-54.207032 63.722656-29.210937 65.535156 29.210937zm0 0" fill="#353a59"/><path d="m364.34375 509.679688h-216.695312c-8.058594 0-14.59375-6.535157-14.59375-14.59375 0-8.0625 6.535156-14.59375 14.59375-14.59375h216.695312c8.0625 0 14.597656 6.53125 14.597656 14.59375 0 8.058593-6.535156 14.59375-14.597656 14.59375zm0 0" fill="#4c5072"/><path d="m188.507812 509.671875h-40.855468c-8.058594 0-14.597656-6.53125-14.597656-14.585937 0-4.035157 1.640624-7.679688 4.273437-10.324219 2.644531-2.644531 6.289063-4.273438 10.324219-4.273438h40.855468c-4.035156 0-7.679687 1.628907-10.324218 4.273438-2.644532 2.644531-4.273438 6.289062-4.273438 10.324219 0 8.054687 6.53125 14.585937 14.597656 14.585937zm0 0" fill="#353a59"/><path d="m452.335938 63.527344h18.558593c22.703125 0 41.105469 18.402344 41.105469 41.097656v280.566406c0 22.695313-18.402344 41.09375-41.105469 41.09375h-429.796875c-22.695312 0-41.097656-18.398437-41.097656-41.09375v-280.566406c0-22.695312 18.402344-41.097656 41.097656-41.097656h18.566406" fill="#4c5072"/><path d="m60.15625 426.285156h-19.058594c-22.695312 0-41.097656-18.398437-41.097656-41.09375v-280.566406c0-22.695312 18.402344-41.097656 41.097656-41.097656h18.566406c-22.464843.261718-40.605468 18.570312-40.605468 41.097656v280.566406c0 22.695313 18.402344 41.09375 41.097656 41.09375zm0 0" fill="#353a59"/><path d="m452.335938 92.953125c18.496093 0 33.488281 14.992187 33.488281 33.5v201.351563c0 18.503906-14.992188 33.5-33.488281 33.5h-392.671876c-18.503906 0-33.5-14.996094-33.5-33.5v-201.351563c0-18.507813 14.996094-33.5 33.5-33.5" fill="#95dae8"/><path d="m452.335938 361.304688v-338.753907c0-12.175781-9.871094-22.050781-22.050782-22.050781h-348.570312c-12.179688 0-22.050782 9.875-22.050782 22.050781v338.753907" fill="#e1ebf0"/><path d="m452.339844 85.113281v15.675781c14.136718 0 25.652344 11.515626 25.652344 25.660157v201.355469c0 14.144531-11.515626 25.660156-25.652344 25.660156h-392.671875c-14.160157 0-25.664063-11.515625-25.664063-25.660156v-201.355469c0-14.144531 11.503906-25.660157 25.664063-25.660157v-15.675781c-22.800781 0-41.335938 18.546875-41.335938 41.335938v201.355469c0 22.789062 18.535157 41.335937 41.335938 41.335937h392.671875c22.789062 0 41.324218-18.546875 41.324218-41.335937v-201.355469c0-22.789063-18.535156-41.335938-41.324218-41.335938zm0 0" fill="#353a59"/><path d="m390.710938 139.324219h-269.429688c-14.152344 0-25.628906-11.472657-25.628906-25.625v-51.199219c0-14.152344 11.476562-25.625 25.628906-25.625h269.429688c14.15625 0 25.628906 11.472656 25.628906 25.625v51.199219c0 14.152343-11.472656 25.625-25.628906 25.625zm0 0" fill="#f9d35a"/><path d="m390.710938 147.160156h-269.429688c-18.453125 0-33.464844-15.011718-33.464844-33.460937v-51.199219c0-18.449219 15.011719-33.460938 33.464844-33.460938h269.429688c18.453124 0 33.464843 15.011719 33.464843 33.460938v51.199219c0 18.449219-15.011719 33.460937-33.464843 33.460937zm-269.429688-102.449218c-9.808594 0-17.789062 7.980468-17.789062 17.789062v51.199219c0 9.808593 7.980468 17.789062 17.789062 17.789062h269.429688c9.8125 0 17.789062-7.980469 17.789062-17.789062v-51.199219c0-9.808594-7.980469-17.789062-17.789062-17.789062zm0 0" fill="#f7aa5c"/><path d="m352.941406 177.042969h-257.289062c-4.328125 0-7.835938-3.507813-7.835938-7.835938s3.507813-7.835937 7.835938-7.835937h257.289062c4.328125 0 7.835938 3.507812 7.835938 7.835937s-3.507813 7.835938-7.835938 7.835938zm0 0" fill="#353a59"/><path d="m226.300781 206.925781h-130.648437c-4.328125 0-7.835938-3.507812-7.835938-7.835937s3.507813-7.839844 7.835938-7.839844h130.648437c4.328125 0 7.835938 3.511719 7.835938 7.839844s-3.507813 7.835937-7.835938 7.835937zm0 0" fill="#353a59"/><path d="m390.710938 331.421875h-269.429688c-14.152344 0-25.628906-11.476563-25.628906-25.628906v-51.195313c0-14.152344 11.476562-25.628906 25.628906-25.628906h269.429688c14.15625 0 25.628906 11.476562 25.628906 25.628906v51.195313c0 14.15625-11.472656 25.628906-25.628906 25.628906zm0 0" fill="#ff435e"/><path d="m390.710938 339.257812h-269.429688c-18.453125 0-33.464844-15.011718-33.464844-33.464843v-51.195313c0-18.453125 15.011719-33.464844 33.464844-33.464844h269.429688c18.453124 0 33.464843 15.011719 33.464843 33.464844v51.195313c0 18.453125-15.011719 33.464843-33.464843 33.464843zm-269.429688-102.449218c-9.808594 0-17.789062 7.980468-17.789062 17.789062v51.199219c0 9.808594 7.980468 17.789063 17.789062 17.789063h269.429688c9.8125 0 17.789062-7.980469 17.789062-17.789063v-51.199219c0-9.808594-7.980469-17.789062-17.789062-17.789062zm0 0" fill="#e51c42"/></svg>