<?xml version="1.0" encoding="utf-8"?>
<!-- Generator: Adobe Illustrator 24.0.1, SVG Export Plug-In . SVG Version: 6.00 Build 0)  -->
<svg version="1.1" id="レイヤー_1" xmlns="http://www.w3.org/2000/svg" xmlns:xlink="http://www.w3.org/1999/xlink" x="0px"
	y="0px" viewBox="0 0 526.29 74.14" style="enable-background:new 0 0 526.29 74.14;" xml:space="preserve">
<g>
	<path d="M14.29,54c-3.53,0.98-7.22,1.23-11.15,0.41C1.99,53.91,0.6,53.09,0.1,51.7c-0.33-2.71,0.08-5.49,1.89-7.38
		c0.49-0.49,1.15,0.33,1.15,0.57c-0.08,0.66-0.33,1.39-0.49,2.13c-0.16,0.74-0.33,1.48-0.33,2.21c-0.08,1.07,0.16,2.05,1.31,2.71
		c3.44,0.74,6.89,0.49,10-0.49c3.77-1.15,7.22-3.12,10.33-5.66c2.46-1.97,4.76-4.43,5.99-7.13c0-0.82-0.16-1.48-0.74-1.97
		c-3.85-1.89-7.87-3.12-11.97-4.43c-4.67-1.56-9.51-2.71-14.02-4.67c-1.64-1.07-3.12-2.95-2.71-5c0.33-1.31,0.98-2.54,1.64-3.69
		c0.74-1.15,1.56-2.3,2.21-3.53c1.39-1.8,2.87-3.94,4.43-5.99c1.64-2.05,3.28-4.02,5.25-5.66c1.89-1.56,4.02-2.79,6.56-3.28
		c1.31-0.08,2.71,0.16,3.94,0.66c1.39,0.66,2.79,1.56,3.69,2.95c0.25,0.49,0,1.31-0.66,1.31c-1.23-0.98-2.54-1.8-4.02-2.13
		c-1.23-0.33-2.54-0.41-3.77,0.08c-1.48,0.49-2.71,1.23-3.85,2.21c-1.31,1.15-2.62,2.54-3.69,3.94c-1.15,1.48-2.13,2.95-3.28,4.26
		c-2.21,2.71-3.85,5.74-5.49,8.86c-0.25,0.82,0,1.56,0.49,2.21c2.38,1.64,5.41,2.05,8.12,2.95c6.4,2.13,12.96,3.85,19.02,6.89
		c1.07,0.66,1.8,1.8,1.97,3.03c-0.33,3.12-2.54,5.58-4.76,7.79C24.29,49.4,19.46,52.6,14.29,54z"/>
	<path d="M68.74,44.07c-3.2,5.74-8.61,10.91-16.24,10.82c-2.87,0-5.49-2.05-6.81-4.76c-1.64-7.13-1.48-14.76-0.98-22.39
		c-2.46,0.57-4.84,1.48-7.38,2.21c-1.07,0-2.13-0.49-2.62-1.56c-0.08-0.57,0.33-1.31,1.15-1.23c0.57,0.08,1.31,0.08,1.72-0.16
		c1.8-0.49,5.49-1.64,7.3-2.21l1.39-12.71c0.08-0.66,0.25-1.48,0.57-2.05c0.57-0.98,1.56-0.9,2.21-0.41
		c0.66,0.33,1.07,0.98,1.56,1.56l0.41,0.49c0.41,0.49,0.82,0.98,1.15,1.56c0.33,0.49,0.66,1.07,0.98,1.97
		c-1.56-0.16-2.13-0.98-3.2-1.8c-0.25-0.25-0.49-0.41-0.74-0.49c-0.16,0.25-0.25,0.74-0.41,1.39l-0.25,3.03
		c-0.16,2.46-0.57,5.08-0.82,6.72c1.89-0.16,3.94-0.57,5.9-0.82c1.97-0.16,3.94-0.16,5.99,0.49c0.66,0.49,0.16,1.48-0.33,1.72
		c-1.64,0.08-3.77,0.25-5.9,0.49c-2.05,0.25-4.18,0.57-5.9,1.15c-0.57,6.64-0.66,14.43,0.49,20.99c0.33,2.05,2.46,3.94,4.35,4.02
		c6.48,0.41,11.32-3.36,14.19-8.04c0.57-0.9,1.07-1.72,1.64-2.62c0.49-0.9,0.98-1.72,1.39-2.62c0.16-0.41,0.57-0.25,0.74-0.16
		c0.16,0.08,0.41,0.33,0.41,0.57c0,0.9-0.33,1.72-0.66,2.54C69.64,42.6,69.15,43.42,68.74,44.07z"/>
	<path d="M93.42,43.75c-0.57-1.72-0.98-3.53-1.39-5.33c-2.21,5.58-5.17,11.32-10.33,15.42c-1.64,1.31-4.18,1.8-5.99,0.66
		c-2.05-1.23-2.95-3.2-3.28-5.41c-0.33-2.79,0.16-5.99,0.82-8.36c1.64-6.23,5.08-11.97,10.41-16.48c0.74-0.41,1.48-0.82,2.21-1.07
		c0.82-0.25,1.64-0.25,2.46,0.16c1.97,0.9,3.36,2.62,4.1,4.59c0.82,1.15,0.82,2.87,0.98,4.26c0.33,0.57,0.49,1.07,0.74,1.8
		c0.33,2.95,0.98,5.58,1.8,8.28c1.39,4.35,2.21,7.71,5.58,10.99c0.08,1.07-1.23,0.9-1.97,0.74C95.96,51.37,94.81,47.68,93.42,43.75z
		M87.68,26.03c-0.82-0.25-1.48,0-2.13,0.41c-2.54,1.72-4.84,4.84-6.31,7.38c-1.8,3.28-3.03,6.81-3.77,10.5
		c-0.08,1.23-0.25,2.54-0.16,3.77s0.41,2.3,1.07,3.2c0.74,0.74,2.05,0.9,3.03,0.57c5.82-4.51,9.18-10.74,11.32-17.14
		c0.16-0.9,0.25-1.89,0.82-2.71c-0.25-0.82-0.82-2.3-1.31-3.2C89.56,27.67,88.74,26.61,87.68,26.03z"/>
	<path d="M120.15,27.92c-2.38,0.98-4.43,2.79-6.64,4.92c-2.21,2.13-4.1,4.67-5.17,7.63c0.25,2.46,0.82,4.76,1.48,6.97
		c0.66,2.3,1.48,4.51,2.13,6.89c-0.25,0.74-1.07,0.98-1.56,0.49l-0.98-1.07c-1.89-5.33-3.85-10.66-4.43-16.24
		c-0.41-3.44-0.16-6.97,0.82-10.5c0.41-0.74,0.74-1.64,1.15-2.38c0.41-0.82,0.98-1.48,2.05-1.89c0.57,0,1.23,0.08,1.72,0.74
		c0,1.15-0.82,1.8-1.31,2.62c-0.16,0.33-0.33,0.49-0.33,0.82c-1.07,2.38-1.39,5.41-1.31,8.69c1.48-2.38,3.53-4.35,5.25-5.9
		c1.48-1.31,4.43-3.03,6.31-3.77c2.05-0.74,3.03-1.15,5.17-1.56c0.9-0.16,2.21-0.33,3.28,0.16c0.25,0.82-0.41,1.31-0.9,1.31
		C124.41,26.36,122.61,26.85,120.15,27.92z"/>
	<path d="M160.58,44.07c-3.2,5.74-8.61,10.91-16.24,10.82c-2.87,0-5.49-2.05-6.81-4.76c-1.64-7.13-1.48-14.76-0.98-22.39
		c-2.46,0.57-4.84,1.48-7.38,2.21c-1.07,0-2.13-0.49-2.62-1.56c-0.08-0.57,0.33-1.31,1.15-1.23c0.57,0.08,1.31,0.08,1.72-0.16
		c1.8-0.49,5.49-1.64,7.3-2.21l1.39-12.71c0.08-0.66,0.25-1.48,0.57-2.05c0.57-0.98,1.56-0.9,2.21-0.41
		c0.66,0.33,1.07,0.98,1.56,1.56l0.41,0.49c0.41,0.49,0.82,0.98,1.15,1.56c0.33,0.49,0.66,1.07,0.98,1.97
		c-1.56-0.16-2.13-0.98-3.2-1.8c-0.25-0.25-0.49-0.41-0.74-0.49c-0.16,0.25-0.25,0.74-0.41,1.39l-0.25,3.03
		c-0.16,2.46-0.57,5.08-0.82,6.72c1.89-0.16,3.94-0.57,5.9-0.82c1.97-0.16,3.94-0.16,5.99,0.49c0.66,0.49,0.16,1.48-0.33,1.72
		c-1.64,0.08-3.77,0.25-5.9,0.49c-2.05,0.25-4.18,0.57-5.9,1.15c-0.57,6.64-0.66,14.43,0.49,20.99c0.33,2.05,2.46,3.94,4.35,4.02
		c6.48,0.41,11.32-3.36,14.19-8.04c0.57-0.9,1.07-1.72,1.64-2.62c0.49-0.9,0.98-1.72,1.39-2.62c0.16-0.41,0.57-0.25,0.74-0.16
		s0.41,0.33,0.41,0.57c0,0.9-0.33,1.72-0.66,2.54C161.48,42.6,160.98,43.42,160.58,44.07z"/>
	<path d="M206.74,25.54c-2.46,1.23-5,2.21-7.71,2.87c-2.05,0.49-4.51,0.66-6.56,0.08c0,4.84-0.08,14.1-0.16,18.94
		c-0.08,1.89-0.16,3.85-0.98,5.49c-0.25,0.66-0.82,1.64-2.05,1.89c0-1.89,0.33-5.49,0.41-7.54c0.16-7.13,0-19.93,0.08-26.81
		l0.16-9.92c0-2.46,0.49-5,1.56-7.13c0.41-0.57,0.98-0.74,1.56-0.66c0.66,0.25,0.9,0.98,0.98,1.39c0,0.66-0.33,1.15-0.66,1.8
		c-0.08,0.16-0.16,0.33-0.16,0.49c-0.33,0.98-0.33,2.13-0.33,3.12c5.66-5.82,12.3-10,20.75-9.51c2.54,0.16,4.84,1.72,6.15,4.1
		c1.15,2.13,1.31,4.43,0.82,6.56c-0.74,2.87-2.79,5.66-4.76,7.87C213.22,21.52,210.1,23.82,206.74,25.54z M211.5,2.83
		c-2.87,0.25-5.66,0.9-8.2,2.13c-4.02,1.89-7.63,5.17-10.58,9.02c-0.08,3.28-0.25,9.35-0.25,12.3c0.74,0.08,1.56,0.08,2.3,0
		l2.46-0.33c2.62-0.66,5.25-1.48,7.71-2.62c2.71-1.31,5.17-2.95,7.38-5.08c2.38-2.21,4.92-5.58,5.58-8.86
		c0.25-1.48,0.16-2.95-0.74-4.26C215.84,3.32,213.79,2.66,211.5,2.83z"/>
	<path d="M239.7,27.92c-2.38,0.98-4.43,2.79-6.64,4.92c-2.21,2.13-4.1,4.67-5.17,7.63c0.25,2.46,0.82,4.76,1.48,6.97
		c0.66,2.3,1.48,4.51,2.13,6.89c-0.25,0.74-1.07,0.98-1.56,0.49l-0.98-1.07c-1.89-5.33-3.85-10.66-4.43-16.24
		c-0.41-3.44-0.16-6.97,0.82-10.5c0.41-0.74,0.74-1.64,1.15-2.38c0.41-0.82,0.98-1.48,2.05-1.89c0.57,0,1.23,0.08,1.72,0.74
		c0,1.15-0.82,1.8-1.31,2.62c-0.16,0.33-0.33,0.49-0.33,0.82c-1.07,2.38-1.39,5.41-1.31,8.69c1.48-2.38,3.53-4.35,5.25-5.9
		c1.48-1.31,4.43-3.03,6.31-3.77c2.05-0.74,3.03-1.15,5.17-1.56c0.9-0.16,2.21-0.33,3.28,0.16c0.25,0.82-0.41,1.31-0.9,1.31
		C243.97,26.36,242.16,26.85,239.7,27.92z"/>
	<path d="M254.71,55.06c-2.54-0.49-5.08-2.62-5.99-5.08c-1.48-4.18-1.39-8.36-0.25-12.3c1.23-4.02,3.53-7.79,6.72-10.82
		c1.89-1.8,4.02-3.44,6.48-4.02c0.49-0.08,1.31,0.16,1.56,0.74c1.07,0.16,2.05,0.66,2.87,1.23c1.48,1.07,2.62,2.62,3.28,4.1
		c1.72,3.69,2.13,7.79,1.39,11.81c-0.74,3.85-2.54,7.54-5.17,10.41C262.75,54.16,259.06,55.8,254.71,55.06z M261.35,25.71
		c-0.41,0.33-0.82,0.57-1.23,0.82l-1.15,0.74c-3.85,2.46-6.15,6.31-7.54,10.41c-1.07,3.28-1.23,6.97-0.41,10.66
		c0.49,1.97,2.38,3.44,4.26,3.85c2.71,0.66,5.33-0.25,7.22-1.89c2.87-2.46,4.59-5.66,5.33-9.18c0.66-2.79,0.66-5.82,0.16-8.69
		c-0.41-2.54-2.13-4.67-4.35-6.31C262.83,25.3,262.01,25.3,261.35,25.71z"/>
	<path d="M291.77,51.7c0,2.71,0,5.49-0.08,8.12c-0.16,2.79-0.49,5.41-1.39,7.71c-0.98,2.38-2.62,4.26-5.25,5.66
		c-1.56,0.9-4.02,1.31-5.74,0.57c-1.64-0.74-2.95-2.13-3.53-3.77c-0.57-3.61,1.31-6.56,3.03-9.18c2.71-4.1,6.56-7.3,10.33-10.25
		c-0.08-5.17,0.49-10.41,0.74-15.58l-2.62,3.53c-1.15,1.48-2.3,2.87-3.61,3.85c-1.56,1.15-3.36,1.72-5.49,1.23
		c-2.3-0.98-3.28-3.28-3.28-5.58c0.33-3.53,1.56-6.81,3.61-9.68c1.15-1.56,2.54-3.2,4.35-4.43c1.15-0.74,2.79-0.9,4.18-0.57
		c0.98,0.49,2.13,1.31,2.71,2.46c0.9,1.97,0.41,4.35,0,6.31c0.41-0.16,0.82-0.33,1.23-0.33c0.74,0.08,1.39,0.66,1.64,1.31
		c0.25,0.98-0.25,2.05-0.08,3.03c-0.41,4.18-0.66,8.28-0.66,12.63c0.41-0.16,0.9-0.49,1.39-0.74c0.57-0.41,1.15-0.74,1.72-1.07
		c0.49,0,0.66,0.98,0.33,1.48c-0.49,0.66-1.15,1.23-1.8,1.8C292.92,50.72,292.26,51.21,291.77,51.7z M283.82,26.36
		c-2.21,1.48-4.43,5.49-5.25,7.87c-0.66,1.72-0.9,3.53-0.49,5.49c0.16,0.66,0.9,1.15,1.56,1.39c1.31,0.08,2.38-0.33,3.2-1.15
		c1.31-1.23,2.21-2.87,3.03-4.35c0.33-0.9,0.74-1.8,1.07-2.79c0.33-0.9,0.66-1.8,0.74-2.71c0.25-1.23,0.08-2.38-0.41-3.44
		C286.11,25.54,284.8,25.71,283.82,26.36z M278.49,68.02c0.08,1.07,0.25,2.05,1.07,2.71c0.82,0.66,1.97,0.9,3.12,0.66
		c2.79-1.23,4.51-3.36,5.33-5.82c0.66-1.8,0.98-3.85,1.07-5.9c0.08-1.97,0-4.02-0.08-5.9c-3.12,2.62-5.82,5.41-8.04,8.69
		C279.8,64.16,278.82,65.97,278.49,68.02z"/>
	<path d="M315.96,27.92c-2.38,0.98-4.43,2.79-6.64,4.92c-2.21,2.13-4.1,4.67-5.17,7.63c0.25,2.46,0.82,4.76,1.48,6.97
		c0.66,2.3,1.48,4.51,2.13,6.89c-0.25,0.74-1.07,0.98-1.56,0.49l-0.98-1.07c-1.89-5.33-3.85-10.66-4.43-16.24
		c-0.41-3.44-0.16-6.97,0.82-10.5c0.41-0.74,0.74-1.64,1.15-2.38c0.41-0.82,0.98-1.48,2.05-1.89c0.57,0,1.23,0.08,1.72,0.74
		c0,1.15-0.82,1.8-1.31,2.62c-0.16,0.33-0.33,0.49-0.33,0.82c-1.07,2.38-1.39,5.41-1.31,8.69c1.48-2.38,3.53-4.35,5.25-5.9
		c1.48-1.31,4.43-3.03,6.31-3.77c2.05-0.74,3.03-1.15,5.17-1.56c0.9-0.16,2.21-0.33,3.28,0.16c0.25,0.82-0.41,1.31-0.9,1.31
		C320.22,26.36,318.42,26.85,315.96,27.92z"/>
	<path d="M344.58,43.75c-0.57-1.72-0.98-3.53-1.39-5.33c-2.21,5.58-5.17,11.32-10.33,15.42c-1.64,1.31-4.18,1.8-5.99,0.66
		c-2.05-1.23-2.95-3.2-3.28-5.41c-0.33-2.79,0.16-5.99,0.82-8.36c1.64-6.23,5.08-11.97,10.41-16.48c0.74-0.41,1.48-0.82,2.21-1.07
		c0.82-0.25,1.64-0.25,2.46,0.16c1.97,0.9,3.36,2.62,4.1,4.59c0.82,1.15,0.82,2.87,0.98,4.26c0.33,0.57,0.49,1.07,0.74,1.8
		c0.33,2.95,0.98,5.58,1.8,8.28c1.39,4.35,2.21,7.71,5.58,10.99c0.08,1.07-1.23,0.9-1.97,0.74
		C347.12,51.37,345.97,47.68,344.58,43.75z M338.84,26.03c-0.82-0.25-1.48,0-2.13,0.41c-2.54,1.72-4.84,4.84-6.31,7.38
		c-1.8,3.28-3.03,6.81-3.77,10.5c-0.08,1.23-0.25,2.54-0.16,3.77s0.41,2.3,1.07,3.2c0.74,0.74,2.05,0.9,3.03,0.57
		c5.82-4.51,9.18-10.74,11.32-17.14c0.16-0.9,0.25-1.89,0.82-2.71c-0.25-0.82-0.82-2.3-1.31-3.2
		C340.72,27.67,339.9,26.61,338.84,26.03z"/>
	<path d="M395.91,53.01c-0.16-0.33-0.25-0.66-0.33-0.9c-1.48-8.12-1.23-16.89-3.03-24.85c-0.08-0.41-0.57-0.98-0.9-0.98
		c-0.66-0.08-1.15,0.25-1.64,0.74c-1.97,2.13-4.1,5.99-5.41,8.61c-2.95,5.82-5.08,12.05-7.22,18.2c-0.16,0.49-0.66,0.82-1.15,0.82
		s-1.07-0.33-1.15-1.15c-0.82-8.12-1.8-15.66-4.43-23.04c-0.33-0.82-0.74-1.64-1.56-2.13c-0.66-0.33-1.56-0.25-2.21,0
		c-1.48,1.07-2.21,2.71-2.87,4.26c-2.95,6.81-4.76,14.02-6.23,21.32c-0.25,0.66-1.15,0.74-1.56,0.25c-1.72-3.12-1.89-6.97-1.8-10.74
		c0.08-6.48,1.48-12.71,3.61-18.53c0.25-0.74,0.74-1.8,1.56-2.3c0.57,0,1.23,0.41,0.98,1.07c-0.82,3.53-1.72,6.97-2.46,10.58
		c-0.74,3.53-1.15,7.13-0.98,10.99c0,0.66,0,1.31,0.08,1.89c0.98-3.77,1.8-7.63,3.03-11.32c1.07-3.03,2.46-5.99,4.35-8.77
		c1.48-1.56,3.69-1.8,5.66-1.23c1.48,0.9,2.46,2.13,3.03,3.44c0.98,2.13,2.38,8.12,2.87,10.74c0.41,2.54,0.74,5.08,1.07,7.71
		c1.72-4.51,3.53-9.1,5.66-13.37c1.31-2.54,4.1-8.12,6.4-9.92c0.9-0.66,1.8-1.15,2.87-0.98c2.38,0.49,2.95,2.46,3.28,4.51
		c0.16,0.82,0.25,1.72,0.49,2.46c1.07,7.63,1.15,15.58,1.97,23.21c0,0.49-0.74,0.74-1.07,0.57
		C396.32,53.83,396.07,53.42,395.91,53.01z"/>
	<path d="M442.65,53.01c-0.16-0.33-0.25-0.66-0.33-0.9c-1.48-8.12-1.23-16.89-3.03-24.85c-0.08-0.41-0.57-0.98-0.9-0.98
		c-0.66-0.08-1.15,0.25-1.64,0.74c-1.97,2.13-4.1,5.99-5.41,8.61c-2.95,5.82-5.08,12.05-7.22,18.2c-0.16,0.49-0.66,0.82-1.15,0.82
		s-1.07-0.33-1.15-1.15c-0.82-8.12-1.8-15.66-4.43-23.04c-0.33-0.82-0.74-1.64-1.56-2.13c-0.66-0.33-1.56-0.25-2.21,0
		c-1.48,1.07-2.21,2.71-2.87,4.26c-2.95,6.81-4.76,14.02-6.23,21.32c-0.25,0.66-1.15,0.74-1.56,0.25c-1.72-3.12-1.89-6.97-1.8-10.74
		c0.08-6.48,1.48-12.71,3.61-18.53c0.25-0.74,0.74-1.8,1.56-2.3c0.57,0,1.23,0.41,0.98,1.07c-0.82,3.53-1.72,6.97-2.46,10.58
		c-0.74,3.53-1.15,7.13-0.98,10.99c0,0.66,0,1.31,0.08,1.89c0.98-3.77,1.8-7.63,3.03-11.32c1.07-3.03,2.46-5.99,4.35-8.77
		c1.48-1.56,3.69-1.8,5.66-1.23c1.48,0.9,2.46,2.13,3.03,3.44c0.98,2.13,2.38,8.12,2.87,10.74c0.41,2.54,0.74,5.08,1.07,7.71
		c1.72-4.51,3.53-9.1,5.66-13.37c1.31-2.54,4.1-8.12,6.4-9.92c0.9-0.66,1.8-1.15,2.87-0.98c2.38,0.49,2.95,2.46,3.28,4.51
		c0.16,0.82,0.25,1.72,0.49,2.46c1.07,7.63,1.15,15.58,1.97,23.21c0,0.49-0.74,0.74-1.07,0.57
		C443.06,53.83,442.81,53.42,442.65,53.01z"/>
	<path d="M463.47,54.9c-0.98,0.08-2.71,0-3.44-0.66c-1.31-1.15-1.8-2.54-2.05-4.18c-0.9-6.72-0.57-13.45,0-20.17
		c-1.15,2.13-2.3,4.1-3.53,6.15c-1.39,2.3-2.95,4.51-4.92,6.64c-0.41,0.33-1.07,0.74-1.64,0.82c-0.25,0-0.57-0.08-0.82-0.25
		c-0.25-0.16-0.33-0.49-0.08-0.82c2.54-2.87,4.51-5.99,6.31-9.18c1.8-3.2,3.36-6.4,5.41-9.51c0.41-0.66,1.64-0.33,2.21,0
		c0.57,0.66,0.49,1.48,0.41,2.13c-1.07,8.28-1.97,19.35-0.33,24.93c0.08,0.49,1.07,1.39,1.56,1.39c0.98,0.08,1.8-0.49,2.62-1.15
		c0.9-0.74,1.56-1.8,2.21-2.71c0.33-0.57,0.49-1.23,0.74-1.8s0.57-1.23,1.23-1.8c0.66,0.57,0.66,1.15,0.57,1.64l-0.33,1.48
		c-0.33,1.64-1.39,3.44-2.71,4.92C466.02,53.75,464.79,54.57,463.47,54.9z M465.53,6.44c-3.28-1.48-6.64-2.38-10.25-3.12
		c-0.82-0.08-0.9-1.72-0.08-2.38c4.92,0.08,9.27,1.8,12.87,5.08c0.49,0.41,1.07,1.15,0.9,2.13c-0.82-0.25-1.39-0.57-1.89-0.82
		L465.53,6.44z"/>
	<path d="M493.73,53.91c-0.16-0.74,0-1.64,0.08-2.38c0-0.25,0-0.49-0.08-0.74c0.49-7.13,0.33-14.84-0.41-21.98
		c-0.08-0.49-0.16-0.9-0.33-1.31c-0.16-0.41-0.33-0.82-0.66-1.07c-0.74-0.74-1.64-0.66-2.54-0.16c-1.07,0.66-1.97,2.05-2.79,3.03
		c-3.03,3.85-5.08,8.2-6.64,12.79c-1.31,3.69-2.13,7.63-2.71,11.56c-0.33,0.9-1.97,1.07-2.3-0.08c0-1.48-0.08-4.35-0.08-5.9
		c-0.16-5.41-0.9-12.55-1.15-16.73c-0.16-2.3-0.33-4.67-1.23-6.81c-0.08-0.41,0.08-1.31,0.82-1.48c1.07,0.16,1.64,0.98,2.05,1.89
		l0.41,0.82c0.74,5.74,1.07,11.56,1.64,17.3c1.23-3.36,2.62-6.81,4.35-9.92c1.72-3.03,3.69-5.99,6.4-8.53
		c0.82-0.49,1.72-1.15,2.95-0.98c1.15,0.08,2.05,0.57,2.95,1.31c1.07,1.8,1.64,3.77,1.97,5.9c0.49,3.44,0.25,7.13,0.33,10.58
		c0.08,3.28-0.08,6.64-0.33,9.92c1.15-0.82,2.13-1.89,3.12-2.95l3.03-3.94c0.41-0.41,0.98,0.33,0.9,0.66
		c-1.72,3.77-4.1,7.22-7.46,10.09C495.13,55.55,493.98,54.65,493.73,53.91z"/>
	<path d="M522.6,51.7c0,2.71,0,5.49-0.08,8.12c-0.16,2.79-0.49,5.41-1.39,7.71c-0.98,2.38-2.62,4.26-5.25,5.66
		c-1.56,0.9-4.02,1.31-5.74,0.57c-1.64-0.74-2.95-2.13-3.53-3.77c-0.57-3.61,1.31-6.56,3.03-9.18c2.71-4.1,6.56-7.3,10.33-10.25
		c-0.08-5.17,0.49-10.41,0.74-15.58l-2.62,3.53c-1.15,1.48-2.3,2.87-3.61,3.85c-1.56,1.15-3.36,1.72-5.49,1.23
		c-2.3-0.98-3.28-3.28-3.28-5.58c0.33-3.53,1.56-6.81,3.61-9.68c1.15-1.56,2.54-3.2,4.35-4.43c1.15-0.74,2.79-0.9,4.18-0.57
		c0.98,0.49,2.13,1.31,2.71,2.46c0.9,1.97,0.41,4.35,0,6.31c0.41-0.16,0.82-0.33,1.23-0.33c0.74,0.08,1.39,0.66,1.64,1.31
		c0.25,0.98-0.25,2.05-0.08,3.03c-0.41,4.18-0.66,8.28-0.66,12.63c0.41-0.16,0.9-0.49,1.39-0.74c0.57-0.41,1.15-0.74,1.72-1.07
		c0.49,0,0.66,0.98,0.33,1.48c-0.49,0.66-1.15,1.23-1.8,1.8C523.74,50.72,523.09,51.21,522.6,51.7z M514.64,26.36
		c-2.21,1.48-4.43,5.49-5.25,7.87c-0.66,1.72-0.9,3.53-0.49,5.49c0.16,0.66,0.9,1.15,1.56,1.39c1.31,0.08,2.38-0.33,3.2-1.15
		c1.31-1.23,2.21-2.87,3.03-4.35c0.33-0.9,0.74-1.8,1.07-2.79c0.33-0.9,0.66-1.8,0.74-2.71c0.25-1.23,0.08-2.38-0.41-3.44
		C516.94,25.54,515.63,25.71,514.64,26.36z M509.31,68.02c0.08,1.07,0.25,2.05,1.07,2.71c0.82,0.66,1.97,0.9,3.12,0.66
		c2.79-1.23,4.51-3.36,5.33-5.82c0.66-1.8,0.98-3.85,1.07-5.9c0.08-1.97,0-4.02-0.08-5.9c-3.12,2.62-5.82,5.41-8.04,8.69
		C510.62,64.16,509.64,65.97,509.31,68.02z"/>
</g>
</svg>
