<?xml version="1.0" encoding="utf-8"?>
<!-- Generator: Adobe Illustrator 24.0.3, SVG Export Plug-In . SVG Version: 6.00 Build 0)  -->
<svg version="1.1" id="レイヤー_1" xmlns="http://www.w3.org/2000/svg" xmlns:xlink="http://www.w3.org/1999/xlink" x="0px"
	 y="0px" viewBox="0 0 695.69 768" style="enable-background:new 0 0 695.69 768;" xml:space="preserve">
<style type="text/css">
	.st0{fill:#CCCCCC;}
</style>
<rect class="st0" width="695.69" height="766.19"/>
<g>
	<path d="M28.13,694.48l-7.24,0.17l-0.4-0.46v-7.3l0.51-0.34l7.01,0.17h3.31V676.7l0.46-0.4h7.81l0.46,0.46v9.98h8.09v-10.09
		l0.46-0.4h7.98l0.46,0.46v10.03h2.11l8.15-0.17l0.51,0.34v7.3l-0.4,0.46l-8.27-0.17h-2.22c-0.4,7.3-1.54,12.66-3.99,16.42
		c-3.31,5.3-8.78,9.18-14.88,11.23c-0.46,0.11-0.74,0.23-1.03,0.23c-0.46,0-0.74-0.17-1.2-0.57l-6.56-5.3
		c8.44-2.17,13.17-5.07,16.02-9.75c1.88-3.14,2.57-6.27,2.79-12.26h-8.04v0.63l0.23,10.09h-9.24l0.29-10.2v-0.51H28.13z"/>
	<path d="M108.16,703.55H82.68l-8.49,0.17l-0.4-0.46v-8.15l0.51-0.34l8.15,0.17h25.42l8.78-0.17l0.46,0.4v8.09l-0.4,0.46
		L108.16,703.55z"/>
	<path d="M135.18,693.86c5.59-2.62,12.31-6.16,18.3-10.49h0.51l5.59,6.73l-0.06,0.57c-7.18,4.67-15.51,8.55-24.4,11.86v3.88
		c0,1.6,0.06,2.45,0.51,3.02c0.68,0.8,1.88,0.97,4.28,0.97c6.44,0,11.74-0.4,19.5-1.25l0.46,0.29l0.34,8.32l-0.34,0.4
		c-6.04,0.51-14.42,0.97-19.55,0.97c-5.53,0-9.92-0.51-12.37-3.59c-1.6-1.94-1.71-4.73-1.71-8.61l0.17-26.39l0.4-0.4h8.04l0.4,0.4
		L135.18,693.86z M154.73,679.78l2.96-2.11l0.57-0.06c2.11,1.77,4.1,3.76,5.81,6.04l-0.06,0.57l-3.14,2.22h-0.57
		c-1.77-2.34-3.36-4.22-5.64-6.16L154.73,679.78z M160.09,676.19l2.91-2.11l0.57-0.06c2.11,1.77,3.93,3.59,5.64,5.87l-0.06,0.57
		l-2.96,2.17h-0.57c-1.77-2.34-3.31-3.99-5.59-5.93L160.09,676.19z"/>
	<path d="M212.02,718.88c-3.76-4.96-8.38-9.63-12.66-13.51c-5.76,6.21-12.03,10.43-19.55,14.31c-0.57,0.29-0.97,0.4-1.25,0.4
		c-0.34,0-0.57-0.17-0.91-0.4l-6.73-5.19c13.11-6.1,24.57-14.71,29.81-26.57h-13.57l-8.49,0.17l-0.4-0.46v-7.75l0.51-0.34l8.55,0.17
		h16.13l5.81-0.28l3.48,3.42c0.4,0.4,0.63,0.68,0.63,1.03c0,0.34-0.17,0.74-0.51,1.37c-2.62,5.07-5.24,9.41-7.87,13.17
		c5.42,4.5,9.69,8.27,14.42,13.62l-0.06,0.63l-6.73,6.27L212.02,718.88z"/>
	<path d="M226.26,721.11c3.08-9.92,5.93-18.58,8.84-27.31c-2.62,0.4-5.7,0.8-8.55,1.14l-0.46-0.34l-1.25-6.9l0.34-0.4
		c4.5-0.34,8.72-0.85,12.66-1.42c1.37-3.93,2.68-7.98,4.16-12.37l0.57-0.28l7.7,1.88l0.17,0.63c-1.2,3.25-2.28,6.27-3.25,9.06
		c1.14-0.06,2.22-0.11,3.31-0.11c4.73,0,9.18,2.91,9.12,11.23c-0.06,7.52-1.08,15.05-2.62,19.5c-2.05,6.44-5.81,7.81-8.84,7.81
		c-2.11,0-4.5-0.34-7.01-1.03c-0.4-0.11-0.57-0.23-0.63-1.03l-0.68-8.09c1.82,0.68,4.33,1.25,5.7,1.25c1.82,0,2.62-0.34,3.48-3.02
		c0.91-2.91,2.05-9.92,2.05-14.88c0-3.42-0.4-4.1-2.91-4.1c-1.03,0-2.34,0.11-3.76,0.23c-3.82,10.83-6.67,19.67-9.81,30.73
		l-0.63,0.17l-7.52-1.88L226.26,721.11z M260.24,686.85l6.04-3.82h0.57c4.85,5.3,8.49,11.52,10.95,17.96l-0.23,0.57l-7.13,4.1
		l-0.51-0.11c-2.22-6.56-5.47-13.28-9.81-18.13L260.24,686.85z M263.55,676.36l2.96-2.11l0.57-0.06c2.11,1.77,4.1,3.76,5.81,6.04
		l-0.06,0.57l-3.14,2.22h-0.57c-1.77-2.34-3.36-4.22-5.64-6.16L263.55,676.36z M268.91,672.77l2.91-2.11l0.57-0.06
		c2.11,1.77,3.93,3.59,5.64,5.87l-0.06,0.57l-2.96,2.17h-0.57c-1.77-2.34-3.31-3.99-5.59-5.93L268.91,672.77z"/>
	<path d="M295.63,693.74c4.96-5.99,9.41-14.31,11.91-22.63L308,671l7.35,2.28l0.11,0.63c-0.85,2.51-2,5.25-3.19,7.92h13.91
		l8.04-0.17l0.46,0.4v6.61l-0.46,0.4l-8.04-0.17h-8.55v5.19h7.24l6.84-0.17l0.46,0.4v6.56l-0.46,0.4l-6.84-0.17h-7.24v5.64h7.47
		l7.13-0.17l0.46,0.4v6.56l-0.46,0.4l-7.13-0.17h-7.35l0.23,11.92h-8.55l0.28-19.15V688.9h-0.97c-1.94,3.59-4.05,6.96-6.1,9.63
		c-0.34,0.4-0.68,0.68-1.08,0.68c-0.23,0-0.51-0.17-0.85-0.46l-5.07-4.62v31.47h-8.04l0.28-17.62v-7.81c-1.03,2-1.94,3.42-2.96,4.79
		c-0.29,0.34-0.51,0.51-0.74,0.51c-0.23,0-0.46-0.23-0.63-0.57l-3.19-6.78c5.42-7.24,9.35-16.25,11.8-26.85l0.51-0.29l7.13,1.77
		l0.29,0.51c-1.37,4.9-2.85,9.12-4.45,12.94V693.74z"/>
	<path d="M359.53,690.44c5.7-5.59,9.75-7.81,14.37-7.81c4.5,0,8.72,2,8.72,9.18c0,3.88-0.4,7.18-0.68,10.09
		c-0.23,2.57-0.46,5.87-0.46,7.24c0,1.54,0.17,2.05,1.31,2.05c1.03,0,4.16-1.48,7.13-5.36l2.34,7.64c0.34,1.03,0.11,1.43-0.63,2.11
		c-3.42,3.19-6.95,4.67-10.83,4.67c-4.39,0-7.92-2.11-7.92-8.95c0-2.62,0.29-5.99,0.57-9.29c0.23-2.57,0.51-5.59,0.51-8.04
		c0-2.74-0.4-3.42-2-3.42c-1.77,0-3.82,1.25-5.81,2.85c-2,1.65-4.39,3.99-6.9,6.38c-0.11,5.99,0,12.31,0.34,20.47
		c0,2.51-1.71,4.5-4.56,4.5c-2.28,0-3.48-1.65-4.16-3.59c-0.57-1.54-2-4.22-4.45-7.01c-0.85,1.2-1.71,2.51-2.74,3.99h-0.63
		l-4.56-6.1v-0.63c4.5-6.04,8.49-10.83,12.88-16.25c0.06-1.25,0.06-2.51,0.06-3.76c-2.34,0.86-4.85,2.05-7.64,3.71l-0.63-0.17
		l-3.14-6.27l0.17-0.63c4.05-2.11,8.15-3.76,11.52-4.9c0.11-2.68,0.23-5.47,0.4-8.44l0.4-0.34l7.47,0.06l0.4,0.46
		c-0.17,2.62-0.34,5.19-0.46,7.52c0.8,0.63,1.6,1.6,1.6,2.74c0,1.03-0.4,1.94-1.94,4.16L359.53,690.44z M350.58,713.53
		c0.68,0.23,0.97,0,0.97-1.14c0-1.71,0-3.93,0-5.64c-1.2,1.71-2.68,3.88-3.88,5.59C348.76,712.84,349.84,713.3,350.58,713.53z"/>
	<path d="M403.59,686.62l-1.48-7.3l0.34-0.51c8.67-1.94,17.44-3.31,23.66-4.1c2.85,0,5.24,2.22,5.24,4.96
		c0,1.03-0.17,2.11-1.03,2.96c-4.62,4.56-7.81,7.47-12.54,12.14c2.74-1.37,4.73-1.48,7.13-1.48c8.61,0,14.37,5.87,14.37,14.71
		c0,10.38-7.81,16.25-20.98,16.25c-6.73,0-12.43-2.79-12.43-9.29c0-3.71,4.1-7.92,8.72-7.92c6.78,0,10.03,4.45,11.57,8.44
		c3.36-1.6,4.39-4.28,4.39-8.27s-3.02-7.18-7.75-7.18c-8.15,0-14.02,5.36-20.07,13.17l-0.57,0.06l-6.1-4.9l-0.06-0.63
		c7.87-9.01,15.05-16.88,22.63-24.4c-4.33,0.91-9.35,2.11-14.59,3.59L403.59,686.62z M415.16,713.7c-1.14,0-2.17,0.46-2.17,1.48
		c0,1.2,1.31,2.28,4.22,2.28c0.8,0,1.37-0.06,1.82-0.17C418.47,714.84,416.53,713.7,415.16,713.7z"/>
	<path d="M485.39,691.46c-4.28,1.31-9.06,2.11-14.08,2.51c0.17,3.88,0.4,7.41,0.74,10.89c5.99,2.45,12.2,5.64,17.62,9.92l0.06,0.63
		l-5.13,6.5l-0.63,0.06c-4.39-4.16-8.27-6.73-11.8-8.49c-0.68,5.25-4.79,9.58-13.23,9.58c-7.87,0-13.4-3.13-13.4-10.15
		c0-5.93,6.27-9.75,14.02-9.75c2.17,0,2.74,0.06,3.88,0.17c-0.68-8.61-1.14-16.36-1.25-27.93l0.46-0.4h7.92l0.46,0.4
		c0,3.76,0,7.24,0.06,10.49c4.67-0.46,8.55-1.25,12.48-2.51l0.57,0.29l1.54,7.24L485.39,691.46z M458.37,710.28
		c-3.02,0-4.85,1.14-4.85,2.57c0,1.88,1.88,2.68,4.96,2.68c3.08,0,4.73-1.71,4.67-4.56C461.68,710.5,460.71,710.28,458.37,710.28z"
		/>
	<path d="M496.73,698.99l-2.17-7.47l0.29-0.51c3.93-0.91,8.21-2.28,11.74-3.25c3.36-0.91,5.7-1.6,7.75-1.6
		c7.3,0,12.03,5.3,12.03,16.02c0,13.74-7.3,19.67-19.27,22.69c-0.51,0-0.68-0.06-0.97-0.46l-5.42-6.5
		c11.4-2.39,16.3-6.84,16.3-14.48c0-6.44-1.2-8.72-3.59-8.72c-1.25,0-3.31,0.57-5.81,1.42c-3.02,0.91-6.67,2.05-10.38,3.08
		L496.73,698.99z M502.15,679.26l2.11-7.12l0.51-0.17c5.36,1.48,10.6,2.34,17.1,2.74l0.34,0.4l-1.31,7.81l-0.46,0.29
		c-6.16-0.8-12.03-1.77-18.07-3.48L502.15,679.26z"/>
	<path d="M541.93,676.58l7.87,1.08l0.34,0.46c-0.17,3.31-0.91,6.56-2.62,12.37c-1.31,4.73-2.11,9.46-2.11,13.23
		c0,3.02,0.06,4.5,0.34,5.76c0.17,0.74,0.74,0.8,1.6-0.06c0.91-1.03,2.11-2.57,2.91-3.71l1.65,0.86c-1.71,4.85-2.57,8.44-2.68,12.03
		c-0.06,2.57-1.31,4.16-3.93,4.22c-2.28,0.06-3.65-1.2-4.96-3.48c-1.25-2.11-2.85-6.73-2.85-14.94c0-5.13,1.2-12.09,2.51-17.33
		c0.85-3.76,1.43-6.78,1.48-10.15L541.93,676.58z M583.15,718.77c-3.88,0.57-7.98,0.91-13.4,0.91c-11.46,0-14.48-5.76-15.85-12.08
		l0.29-0.51l6.1-2.79l0.51,0.17c1.08,5.36,3.31,7.07,10.95,7.01c1.88,0,6.73-0.4,10.66-1.2l0.51,0.34l0.51,7.64L583.15,718.77z
		 M558.29,682.34c1.88,0.06,3.71,0.11,5.47,0.11c5.42,0,10.38-0.4,16.08-1.37l0.4,0.34l0.34,7.18l-0.34,0.46
		c-4.28,0.91-10.26,1.42-16.48,1.42c-1.82,0-3.59,0-5.42-0.11l-0.4-0.51v-7.07L558.29,682.34z"/>
	<path d="M613.93,674.48c-0.51,2.28-1.14,4.5-1.65,6.56c2-0.4,3.99-0.86,5.99-1.37l0.51,0.23l1.08,5.02
		c6.38,0.51,12.43,1.82,17.62,4.45l0.17,0.57l-2.34,6.33l-0.46,0.23c-1.82-0.86-2.96-0.97-4.62-0.97c-3.65,0-6.78,1.43-6.78,3.99
		c0,1.77,0.86,4.39,2.51,8.49c4.73,2.05,9.24,4.67,12.43,7.3v0.57l-4.79,6.16l-0.51,0.06c-2.45-2.22-4.28-3.82-6.67-5.42
		c-0.17,4.62-5.19,7.64-11.63,7.64c-7.41,0-11.97-2.96-11.97-8.89c0-5.36,4.56-9.12,10.66-9.12c2,0,2.51,0.11,3.71,0.29
		c-0.86-2.91-1.37-4.73-1.25-6.96c0.11-3.08,3.02-5.7,7.75-7.13c-2.22-0.4-5.02-0.63-7.75-0.8l-0.28-0.4l1.42-3.25
		c-2.45,0.51-4.96,1.03-7.47,1.37c-3.42,9.52-7.75,17.04-13.45,25.08l-0.57,0.11l-6.73-4.33v-0.51c4.79-5.76,8.67-12.37,11.52-19.27
		c-2.96,0.29-5.99,0.46-9.12,0.51l-0.46-0.34l-0.17-7.01l0.4-0.4c4.33-0.11,8.38-0.4,12.26-0.8c0.91-3.19,1.65-6.33,2.17-9.46
		l0.51-0.34l7.64,1.31L613.93,674.48z M613.24,712.9c-1.94,0-3.08,1.2-3.08,2.17c0,1.37,1.25,2.28,3.31,2.28
		c3.25,0,5.13-1.14,5.07-3.42C617.23,713.18,615.81,712.9,613.24,712.9z"/>
	<path d="M650.23,686.62l-1.48-7.3l0.34-0.51c8.67-1.94,17.44-3.31,23.66-4.1c2.85,0,5.25,2.22,5.25,4.96
		c0,1.03-0.17,2.11-1.03,2.96c-4.62,4.56-7.81,7.47-12.54,12.14c2.74-1.37,4.73-1.48,7.12-1.48c8.61,0,14.37,5.87,14.37,14.71
		c0,10.38-7.81,16.25-20.98,16.25c-6.73,0-12.43-2.79-12.43-9.29c0-3.71,4.1-7.92,8.72-7.92c6.78,0,10.03,4.45,11.57,8.44
		c3.36-1.6,4.39-4.28,4.39-8.27s-3.02-7.18-7.75-7.18c-8.15,0-14.02,5.36-20.07,13.17l-0.57,0.06l-6.1-4.9l-0.06-0.63
		c7.87-9.01,15.05-16.88,22.63-24.4c-4.33,0.91-9.35,2.11-14.59,3.59L650.23,686.62z M661.81,713.7c-1.14,0-2.17,0.46-2.17,1.48
		c0,1.2,1.31,2.28,4.22,2.28c0.8,0,1.37-0.06,1.82-0.17C665.11,714.84,663.17,713.7,661.81,713.7z"/>
</g>
<rect x="806.18" y="-546.65" class="st0" width="695.69" height="766.19"/>
<text transform="matrix(1 0 0 1 856.5571 173.599)" style="font-family:'ToppanBunkyuMidashiGothicStdN-ExtraBold-83pv-RKSJ-H'; font-size:57px;">徹底サポートでやりきれる</text>
</svg>
