<?xml version="1.0" encoding="utf-8"?>
<!-- Generator: Adobe Illustrator 24.0.3, SVG Export Plug-In . SVG Version: 6.00 Build 0)  -->
<svg version="1.1" id="レイヤー_1" xmlns="http://www.w3.org/2000/svg" xmlns:xlink="http://www.w3.org/1999/xlink" x="0px"
	 y="0px" viewBox="0 0 695.69 768" style="enable-background:new 0 0 695.69 768;" xml:space="preserve">
<style type="text/css">
	.st0{fill:#CCCCCC;}
</style>
<rect class="st0" width="695.69" height="766.19"/>
<g>
	<path d="M34.18,690.21l-8.61,0.17l-0.4-0.46v-7.24l0.46-0.4l8.49,0.17h26.91l8.04-0.17l0.46,0.4v7.24l-0.4,0.46l-8.09-0.17H53.1
		c-0.4,7.7-3.53,15.22-9.18,20.58c-1.94,1.82-4.1,3.25-6.44,4.62c-0.46,0.23-0.68,0.34-0.97,0.34s-0.63-0.17-1.2-0.57l-7.24-4.5
		c9.01-3.42,14.94-10.09,15.68-20.46H34.18z M55.27,677.61H39.48l-7.58,0.17l-0.4-0.46v-7.35l0.51-0.34l7.01,0.17h16.19l7.75-0.17
		l0.46,0.4v7.3l-0.4,0.46L55.27,677.61z"/>
	<path d="M94.48,682.22c-3.48,4.56-7.18,8.44-11.34,11.8c-0.63,0.46-0.97,0.68-1.37,0.68c-0.23,0-0.51-0.11-0.91-0.34l-6.78-4.1
		c8.95-6.79,14.71-13.85,18.87-22.97l0.51-0.17l8.15,3.02l0.11,0.57c-0.74,1.43-1.48,2.74-2.34,4.11l7.3-0.11l4.33-0.34l4.96,4.62
		c0.51,0.46,0.8,0.8,0.8,1.2c0,0.28-0.11,0.63-0.34,1.14c-7.18,15.45-16.42,26-32.61,33.41c-0.74,0.29-1.14,0.46-1.48,0.46
		c-0.28,0-0.57-0.12-0.97-0.46l-7.07-5.47c12.71-4.16,24.68-13.22,31.07-27.08L94.48,682.22z"/>
	<path d="M145.5,670.6l8.95,3.13l0.17,0.57c-6.27,17.96-15.33,29.42-29.87,38.82c-0.63,0.34-0.91,0.51-1.25,0.51
		c-0.28,0-0.57-0.17-1.03-0.51l-7.41-5.02c16.19-9.06,25.08-20.18,29.87-37.34L145.5,670.6z"/>
	<path d="M164.59,711.24l0.29-19.55v-9.75l-0.17-6.9l0.46-0.4l8.38,0.17h18.58l8.15-0.17l0.46,0.4l-0.17,7.41v16.08l0.17,7.81
		l-0.4,0.46l-8.67-0.17h-17.79v4.62H164.59z M191.44,682.68h-17.56v16.08h17.56V682.68z"/>
	<path d="M209.28,691.35l3.08-7.07l0.51-0.23c3.48,1.77,7.41,2.96,11.69,3.82l0.29,0.46l-2.34,7.58l-0.51,0.29
		c-4.56-0.8-8.21-1.99-12.54-4.33L209.28,691.35z M255.86,687.53c0.11,0.4,0.17,0.68,0.17,0.91c0,0.4-0.17,0.68-0.63,1.2
		c-8.61,9.92-23.09,18.87-37.51,24.23l-0.63-0.11l-4.85-7.7l0.17-0.63c15.62-5.07,29.76-13.85,40.7-27.02L255.86,687.53z
		 M215.15,677.38l4.62-6.16l0.68-0.11c3.76,1.54,7.24,3.48,10.89,6.1l0.11,0.63l-4.73,6.5l-0.63,0.12
		c-3.99-3.08-6.78-4.68-10.83-6.5L215.15,677.38z M242.74,671.79l2.96-2.11l0.57-0.06c2.11,1.77,4.1,3.76,5.81,6.04l-0.06,0.57
		l-3.14,2.22h-0.57c-1.77-2.34-3.36-4.22-5.64-6.16L242.74,671.79z M248.1,668.2l2.91-2.11l0.57-0.06c2.11,1.77,3.93,3.59,5.64,5.87
		l-0.06,0.57l-2.96,2.17h-0.57c-1.77-2.34-3.31-3.99-5.59-5.93L248.1,668.2z"/>
	<path d="M295.81,696.53h-25.48l-8.49,0.17l-0.4-0.46v-8.15l0.51-0.34l8.15,0.17h25.42l8.78-0.17l0.46,0.4v8.09l-0.4,0.46
		L295.81,696.53z"/>
	<path d="M318.5,707.59v5.98h-6.96l0.23-20.35v-17.16l-0.11-7.41l0.28-0.4l5.24,0.17h5.99l5.81-0.17l0.4,0.4l-0.17,7.41v16.82
		l0.17,17.33h-7.07v-2.62H318.5z M322.31,675.27h-3.82v9.01h3.82V675.27z M322.31,690.83h-3.82v9.92h3.82V690.83z M341.64,677.89
		h-2.91l-6.9,0.17l-0.4-0.29v-6.1l0.34-0.4l6.96,0.17h2.91v-6.56l0.4-0.46h7.18l0.4,0.4v6.61h3.53l6.78-0.17l0.46,0.34v6.1
		l-0.29,0.34l-6.95-0.17h-3.53v4.73h6.84l6.95-0.17l0.34,0.29v6.21l-0.4,0.4l-6.9-0.17h-18.58l-7.47,0.17l-0.4-0.34v-6.27l0.34-0.29
		l7.52,0.17h3.76V677.89z M349.45,691.18l0.46-0.57h6.61l0.51,0.51v3.36l4.96-0.12l0.34,0.29v6.21l-0.4,0.4l-4.9-0.11v3.08
		l0.23,7.18c0,5.13-2.28,7.01-10.2,7.01c-1.14,0-1.25-0.11-1.48-0.68l-2.74-6.9c2.68-0.06,4.1-0.11,5.07-0.23
		c1.2-0.06,1.54-0.4,1.54-1.77v-7.75h-11.12l-7.47,0.17l-0.4-0.34v-6.27l0.34-0.29l7.52,0.17h11.12V691.18z M338.96,701.66h0.57
		c1.43,1.03,4.39,3.99,5.99,6.33l-0.06,0.51l-5.87,4.28l-0.51-0.06c-1.65-2.39-4.16-5.47-5.59-6.73l0.11-0.51L338.96,701.66z"/>
	<path d="M381.2,718.94h-8.09l0.29-17.62v-7.7c-1.08,2.56-1.82,4.1-2.91,5.81c-0.23,0.4-0.51,0.57-0.74,0.57
		c-0.29,0-0.51-0.23-0.63-0.63l-2.51-7.58c4.33-7.7,8.21-16.88,9.98-26.91l0.51-0.29l7.24,1.54l0.29,0.51
		c-1.08,4.39-2.17,8.15-3.42,11.63V718.94z M411.87,679.26l6.78-0.8l0.4,0.4l0.63,6.33l-0.34,0.4l-6.78,0.46l-11.51,1.08
		c0.74,6.96,2.05,11.92,4.33,16.3c1.82,3.48,4.62,6.16,5.7,6.16c1.25,0,2.51-1.42,3.53-8.72l5.47,4.62c0.57,0.46,0.74,0.8,0.68,1.48
		c-1.08,8.72-5.02,11.63-8.89,11.63c-4.1,0-9.29-2.68-13.62-10.95c-2.62-5.07-4.28-11-5.24-19.72l-2.51,0.23l-7.13,0.86l-0.46-0.34
		l-0.68-6.38l0.34-0.34l7.18-0.51l2.68-0.29c-0.29-4.5-0.46-9.69-0.51-15.68l0.34-0.46h7.52l0.4,0.4c0.06,5.76,0.17,10.66,0.4,14.94
		L411.87,679.26z M410.16,678.06l-0.46-0.06c-2.11-2.45-4.33-4.5-6.78-6.21l-0.11-0.51l4.73-4.1l0.51-0.12
		c2.39,1.48,5.13,3.71,7.07,5.76l0.11,0.57L410.16,678.06z"/>
	<path d="M448.46,709.25c12.26-2.05,17.79-7.92,17.79-14.76c0-8.67-4.79-14.14-10.6-15.34c-1.14,10.78-4.85,20.81-8.78,26.57
		c-3.08,4.5-6.27,6.16-10.72,6.16c-3.42,0-5.87-1.65-8.04-5.07c-1.65-2.56-2.79-5.7-2.79-10.32c0-13.79,10.32-24.97,26-24.97
		c15.56,0,23.89,10.43,23.89,23.09c0,10.38-7.3,18.24-19.38,21.09c-0.8,0.06-1.2,0.06-1.82-0.57L448.46,709.25z M433.18,696.48
		c0,1.88,0.34,3.25,0.97,4.33c0.63,1.14,1.43,1.88,2.34,1.88c1.31,0,2.96-1.31,4.5-4.39c3.19-6.38,4.79-12.43,5.64-19.38
		C438.31,680.34,433.18,687.7,433.18,696.48z"/>
	<path d="M505.69,675.16c-2.57-2.56-5.36-4.79-8.09-6.56l0.06-0.51l5.59-4.45h0.57c3.13,1.65,6.33,4.05,9.46,6.96v0.51l-4.85,4.05
		h14.71l7.64-0.17l0.34,0.29v6.84l-0.34,0.29l-7.64-0.17h-11.74v9.12h8.04l7.53-0.17l0.34,0.29v6.78l-0.34,0.29l-7.53-0.17h-8.04
		v11.23h13.62l8.21-0.17l0.34,0.29v6.9l-0.34,0.29l-8.21-0.17h-35.8l-7.98,0.17l-0.4-0.34v-6.78l0.34-0.34l8.04,0.17h13.57v-11.23
		h-8.21l-7.47,0.17l-0.4-0.34v-6.67l0.34-0.34l7.52,0.17h8.21v-9.12h-11.97l-7.41,0.17l-0.4-0.34v-6.73l0.34-0.34l7.47,0.17H505.69z
		"/>
	<path d="M554.08,681.37c-0.17,0.4-0.4,0.8-0.57,1.26c4.39-2.28,5.81-4.5,5.81-10.09v-1.37l-0.17-4.45l0.4-0.4l7.01,0.17h6.95
		l7.01-0.17l0.4,0.4l-0.17,5.87v4.56c0,1.65,0.17,1.77,1.6,1.77c2.17,0,2.34-0.4,2.68-4.9l5.87,2c0.68,0.23,0.97,0.46,0.91,0.97
		c-0.29,4.96-0.97,6.61-2,7.64c-1.31,1.25-2.45,1.88-9.06,1.88c-6.96,0-8.27-0.85-8.27-4.85l0.06-4.79v-3.59h-5.36v1.82
		c0,6.04-2.62,9.86-7.07,12.77c-0.23,0.11-0.46,0.23-0.68,0.23c-0.29,0-0.57-0.12-0.91-0.4l-5.25-4.73
		c-0.85,1.88-1.88,3.71-2.96,5.47v30.5h-7.87l0.29-14.71v-6.73c-0.86,1.14-1.54,1.88-2.51,2.79c-0.29,0.23-0.57,0.34-0.74,0.34
		c-0.34,0-0.57-0.23-0.68-0.63l-2.62-6.96c4.33-3.71,7.87-8.44,11.23-15.45l0.57-0.06l5.93,3.31L554.08,681.37z M548.04,664.27
		l5.93,3.59l0.17,0.51c-3.59,5.36-7.75,9.52-12.09,12.65c-0.29,0.23-0.51,0.34-0.68,0.34c-0.23,0-0.46-0.23-0.74-0.63l-4.16-5.76
		c4.45-2.74,8.04-6.16,11-10.66L548.04,664.27z M587.88,718.08c-0.23,0.4-0.57,0.4-1.43,0.29c-5.64-0.91-10.66-2.68-14.94-5.24
		c-4.22,2.79-9.23,4.56-15.05,5.59c-0.34,0.06-0.57,0.12-0.74,0.12c-0.34,0-0.51-0.12-0.68-0.4l-4.16-6.27
		c5.59-0.74,10.26-2.05,14.08-4.16c-2.51-2.56-4.5-5.53-5.87-8.84l0.23-0.51l6.04-2.56l0.57,0.06c1.37,2.79,3.13,5.07,5.24,7.01
		c1.82-1.99,3.31-4.39,4.45-7.24h-12.31l-8.72,0.17l-0.4-0.4v-6.84l0.4-0.4l8.72,0.17h14.37l4.56-0.17l3.02,3.02
		c0.28,0.29,0.4,0.57,0.4,0.91c0,0.23-0.06,0.57-0.17,0.91c-1.88,5.81-4.39,10.43-7.52,14.14c3.93,1.82,8.61,2.96,13.91,3.59
		L587.88,718.08z"/>
	<path d="M594.94,692.66c5.19-4.45,9.35-8.55,13-12.54c2.22-2.45,4.56-4.1,7.01-4.1c2.68,0,4.62,1.2,7.3,3.88
		c6.73,6.61,14.94,12.71,25.48,19.1l0.06,0.63l-5.02,7.47l-0.63,0.06c-10.43-6.61-18.01-13.4-23.77-19.15
		c-1.25-1.25-2.11-1.88-2.91-1.88c-0.91,0-1.6,0.4-2.56,1.48c-3.14,3.42-7.01,7.58-12.03,12.31l-0.51-0.06l-5.47-6.55L594.94,692.66
		z"/>
</g>
</svg>
